<svg width="418" height="110" viewBox="0 0 418 110" fill="none" xmlns="http://www.w3.org/2000/svg">
<g clip-path="url(#clip0_9710_4456)">
<path d="M265.843 36.9605C265.843 36.9605 264.181 52.7724 266.362 62.4962C268.319 71.2209 271.371 78.0766 275.968 83.2796C280.565 88.4826 286.165 91.3536 291.975 91.4861C297.785 91.6186 303.51 89.0057 308.339 84.0177C313.168 79.0296 316.53 72.3203 318.883 63.6937C321.504 54.0795 320.565 38.2083 320.565 38.2083C320.565 38.2083 319.282 17.3314 310.288 17.1263C301.293 16.9212 299.06 37.7179 299.06 37.7179C299.06 37.7179 297.398 53.5298 299.579 63.2536C301.536 71.9783 304.588 78.834 309.185 84.037C313.782 89.24 319.382 92.1111 325.192 92.2435C331.002 92.376 336.727 89.7632 341.556 84.7751C346.385 79.7871 349.747 73.0777 352.1 64.4512C354.722 54.8369 353.782 38.9657 353.782 38.9657C353.782 38.9657 352.499 18.0889 343.505 17.8838C334.51 17.6787 332.277 38.4754 332.277 38.4754C332.277 38.4754 330.615 54.2873 332.796 64.011C334.753 72.7358 337.806 79.5914 342.402 84.7944C346.999 89.9974 352.599 92.8685 358.409 93.0009C364.219 93.1334 370.883 90.542 375.712 85.5539C380.542 80.5659 383.291 73.4341 385.317 65.2086C387.343 56.9831 389.487 27.2548 387.944 18.8971M387.944 18.8971C386.064 26.7086 380.881 35.3088 378.525 38.6324M387.944 18.8971C390.231 23.9972 395.527 34.8896 398.421 37.6582" stroke="#FAE143" stroke-width="4" stroke-linecap="round"/>
<path d="M150.299 11.8223L200.156 98.1774H100.442L150.299 11.8223Z" fill="#E76BEC"/>
<path d="M135.678 83.6784C133.643 95.5931 122.337 103.587 110.426 101.532C98.5146 99.4779 90.5081 88.1538 92.543 76.2391C94.5779 64.3244 105.884 56.331 117.795 58.3853C129.706 60.4396 137.713 71.7637 135.678 83.6784Z" fill="#FFC408" stroke="black" stroke-width="4"/>
<path fill-rule="evenodd" clip-rule="evenodd" d="M118.686 74.2431C117.986 70.846 117.202 68.394 116.921 67.6467L119.67 66.6154C120.014 67.5311 120.837 70.1347 121.562 73.6548L118.686 74.2431ZM111.377 75.7892C110.677 72.3921 109.894 69.9402 109.613 69.1929L112.361 68.1615C112.705 69.0773 113.528 71.6808 114.253 75.2009L111.377 75.7892ZM114.2 84.0385C108.611 84.2223 103.392 82.7279 100.942 81.0439L102.6 78.6185C104.385 79.8458 108.929 81.2673 114.097 81.0973C119.201 80.9293 124.61 79.2186 128.367 74.5677L130.651 76.4224C126.195 81.9394 119.852 83.8525 114.2 84.0385Z" fill="black"/>
<path fill-rule="evenodd" clip-rule="evenodd" d="M82.3808 76.0729C81.1874 78.1202 80.6339 80.4465 81.3632 83.1336C82.0547 85.6817 83.3464 87.5559 85.015 88.8742C86.6681 90.1802 88.6251 90.8893 90.5887 91.2325C94.4866 91.9137 98.6342 91.1915 101.174 90.537L100.532 88.046C98.1302 88.665 94.3995 89.2872 91.0316 88.6986C89.3624 88.4068 87.8396 87.8274 86.6096 86.8557C85.3951 85.8962 84.4003 84.5035 83.8457 82.4598C83.3288 80.5551 83.69 78.9348 84.6031 77.3684C85.5493 75.7453 87.0654 74.2197 88.8282 72.5872C89.1427 72.296 89.4656 72.0009 89.7928 71.7019C91.2472 70.3729 92.7881 68.9649 94.0641 67.4608C95.6436 65.599 96.9398 63.4572 97.2478 60.8931L94.6938 60.5864C94.4702 62.4479 93.5183 64.128 92.1026 65.7967C90.9428 67.1638 89.5536 68.4342 88.1068 69.7573C87.7671 70.0679 87.4243 70.3815 87.0805 70.6998C85.323 72.3273 83.5411 74.0824 82.3808 76.0729Z" fill="black"/>
<path fill-rule="evenodd" clip-rule="evenodd" d="M140.508 105.442C139.257 99.7879 136.028 94.8823 130.508 94.8823V97.4546C134.111 97.4546 136.813 100.649 137.996 105.997L140.508 105.442Z" fill="black"/>
<path fill-rule="evenodd" clip-rule="evenodd" d="M132.144 109.263C130.893 103.608 127.664 98.7029 122.144 98.7029V101.275C125.747 101.275 128.449 104.469 129.632 109.818L132.144 109.263Z" fill="black"/>
<path fill-rule="evenodd" clip-rule="evenodd" d="M120.191 54.9288C117.072 55.1454 113.804 55.3725 110.104 55.0064L109.851 57.5662C113.786 57.9556 117.302 57.71 120.428 57.4917C121.07 57.4467 121.697 57.403 122.307 57.3661C125.932 57.1473 128.976 57.171 131.917 58.3878C135.312 59.7927 136.707 62.3228 136.922 64.8122C137.146 67.4001 136.095 69.8901 134.628 71.1104L136.272 73.0881C138.48 71.252 139.77 67.8897 139.485 64.5907C139.191 61.1931 137.227 57.8014 132.9 56.0109C129.378 54.5533 125.82 54.577 122.152 54.7985C121.503 54.8377 120.85 54.883 120.191 54.9288Z" fill="black"/>
<path d="M88.6792 2.13989C94.4451 4.41 109.159 11.3909 114.826 21.0003C117.21 25.0426 132.447 48.7521 129.867 50.2604C119.204 56.4933 112.857 37.8876 102.724 29.653C98.7393 26.4147 92.0427 22.6828 88.6792 21.5219M21.156 5.75713C27.0795 18.0722 37.2829 27.4966 41.8634 32.3633C46.4439 37.2301 64.1809 50.2604 69.2935 54.7856C71.8515 57.0497 79.316 64.888 82.7486 59.8523C86.0135 55.0625 82.4623 48.9737 75.5916 38.3813C68.7208 27.789 66.4373 20.7352 75.5916 19.4868C78.4303 19.0997 83.8631 19.8595 88.6792 21.5219M119.204 50.2604C119.204 50.2604 112.826 54.7856 107.405 47.6401C103.098 41.9624 91.5446 22.57 88.6792 21.5219" stroke="#1844F5" stroke-width="4"/>
<path d="M237.719 108.472C219.18 99.4111 210.313 91.0983 200.655 78.1602C190.997 65.2221 184.315 45.7649 182.113 39.8425C184.923 38.324 192.045 37.838 198.058 48.0427C202.144 54.9754 208.988 65.0032 216.433 72.3848M275.285 86.8728C273.615 81.7856 264.896 67.943 262.344 51.093C261.162 43.2963 261.661 37.9614 256.049 37.1091C252.71 36.602 248.791 37.9615 248.171 48.0427C247.259 62.8487 247.943 79.4673 235.187 81.5174C232.745 81.9098 231.839 81.678 229.191 80.4683M187.704 39.2255C189.028 37.6722 192.818 34.3588 198.058 39.8425C203.99 46.0503 211.425 65.7576 216.433 72.3848M216.433 72.3848C220.064 75.9851 225.524 78.7931 229.191 80.4683M195.845 37.9614C197.784 37.5487 203.928 34.9443 207.16 42.7C210.391 50.4557 221.509 74.3316 229.191 80.4683" stroke="#1844F5" stroke-width="4"/>
<rect x="208.709" y="3" width="32" height="32" fill="#3EC1FA" stroke="black" stroke-width="4"/>
</g>
<defs>
<clipPath id="clip0_9710_4456">
<rect width="418" height="110" fill="white"/>
</clipPath>
</defs>
</svg>
