<svg width="324" height="110" viewBox="0 0 324 110" fill="none" xmlns="http://www.w3.org/2000/svg">
<g clip-path="url(#clip0_9246_2130)">
<path d="M85.8114 41.2851C85.8114 41.2851 84.4193 58.2419 86.9896 68.5916C89.2959 77.878 92.7291 85.138 97.774 90.5922C102.819 96.0465 108.88 98.9815 115.099 98.9815C121.318 98.9815 127.379 96.0465 132.424 90.5922C137.468 85.138 140.902 77.878 143.208 68.5916C145.778 58.2419 144.386 41.2851 144.386 41.2851C144.386 41.2851 142.504 18.9814 132.877 18.9814C123.249 18.9814 121.367 41.2851 121.367 41.2851C121.367 41.2851 119.975 58.2419 122.545 68.5916C124.851 77.878 128.285 85.138 133.33 90.5922C138.374 96.0465 144.436 98.9815 150.654 98.9815C156.873 98.9815 162.934 96.0465 167.979 90.5922C173.024 85.138 176.457 77.878 178.763 68.5916C181.334 58.2419 179.942 41.2851 179.942 41.2851C179.942 41.2851 178.06 18.9814 168.432 18.9814C158.804 18.9814 156.923 41.2851 156.923 41.2851C156.923 41.2851 155.53 58.2419 158.101 68.5916C160.407 77.878 163.84 85.138 168.885 90.5922C173.93 96.0465 179.991 98.9815 186.21 98.9815C192.429 98.9815 199.495 96.0465 204.54 90.5922C209.585 85.138 212.352 77.441 214.319 68.5916C216.286 59.7421 217.854 27.8853 216 18.9814M216 18.9814C214.179 27.3845 208.844 36.7117 206.404 40.325M216 18.9814C218.571 24.382 224.503 35.9059 227.667 38.7973" stroke="#1844F5" stroke-width="4" stroke-linecap="round"/>
<path fill-rule="evenodd" clip-rule="evenodd" d="M245.907 69.8324C251.017 71.9696 256.958 72.0304 263.483 69.0356L261.998 65.7997C256.31 68.4105 251.406 68.2732 247.281 66.5477C243.096 64.7977 239.534 61.3364 236.772 57.011L233.772 58.9271C236.79 63.6541 240.856 67.7199 245.907 69.8324Z" fill="black"/>
<path fill-rule="evenodd" clip-rule="evenodd" d="M310.721 69.8324C305.611 71.9696 299.67 72.0304 293.145 69.0356L294.63 65.7997C300.318 68.4105 305.222 68.2732 309.347 66.5477C313.532 64.7977 317.094 61.3364 319.855 57.011L322.856 58.9271C319.838 63.6541 315.772 67.7199 310.721 69.8324Z" fill="black"/>
<path d="M272.675 36.56C274.526 33.3552 275.451 31.7528 276.659 31.2151C277.712 30.746 278.915 30.746 279.969 31.2151C281.176 31.7528 282.102 33.3552 283.952 36.56L310.851 83.1507C312.701 86.3555 313.626 87.9579 313.488 89.2727C313.368 90.4196 312.766 91.4615 311.833 92.1393C310.764 92.9165 308.913 92.9165 305.213 92.9165H251.414C247.714 92.9165 245.864 92.9165 244.794 92.1393C243.861 91.4615 243.26 90.4196 243.139 89.2727C243.001 87.9579 243.926 86.3555 245.776 83.1507L272.675 36.56Z" fill="#E76BEC"/>
<path fill-rule="evenodd" clip-rule="evenodd" d="M306.446 85.6939L279.547 39.1031C279.036 38.2188 278.64 37.5346 278.314 36.9926C277.987 37.5346 277.591 38.2188 277.08 39.1031L250.181 85.6939C249.671 86.5782 249.276 87.2638 248.97 87.8173C249.603 87.8287 250.393 87.8301 251.414 87.8301H305.213C306.234 87.8301 307.025 87.8287 307.657 87.8173C307.351 87.2638 306.957 86.5782 306.446 85.6939ZM308.466 89.4679C308.466 89.4678 308.465 89.4649 308.464 89.4594C308.465 89.4651 308.466 89.4679 308.466 89.4679ZM309.483 87.6946C309.488 87.6931 309.491 87.6924 309.491 87.6925C309.491 87.6925 309.488 87.6933 309.483 87.6946ZM247.136 87.6925C247.136 87.6924 247.139 87.6931 247.145 87.6946C247.139 87.6932 247.136 87.6925 247.136 87.6925ZM248.164 89.4594C248.162 89.4649 248.161 89.4678 248.161 89.4678C248.161 89.4679 248.162 89.4651 248.164 89.4594ZM279.339 35.4668C279.339 35.4669 279.337 35.4691 279.333 35.4732C279.337 35.4688 279.339 35.4668 279.339 35.4668ZM277.295 35.4732C277.291 35.4691 277.289 35.4669 277.289 35.4668C277.289 35.4668 277.291 35.4688 277.295 35.4732ZM276.659 31.2151C275.451 31.7528 274.526 33.3552 272.675 36.56L245.776 83.1507C243.926 86.3555 243.001 87.9579 243.139 89.2727C243.26 90.4196 243.861 91.4615 244.794 92.1393C245.864 92.9165 247.714 92.9165 251.414 92.9165H305.213C308.913 92.9165 310.764 92.9165 311.833 92.1393C312.766 91.4615 313.368 90.4196 313.488 89.2727C313.626 87.9579 312.701 86.3555 310.851 83.1507L283.952 36.56C282.102 33.3552 281.176 31.7528 279.969 31.2151C278.915 30.746 277.712 30.746 276.659 31.2151Z" fill="black"/>
<path fill-rule="evenodd" clip-rule="evenodd" d="M286.387 102.303V89.7419H282.827V105.863H289.048V102.303H286.387Z" fill="black"/>
<path fill-rule="evenodd" clip-rule="evenodd" d="M271.728 102.303V89.7419H275.289V105.863H269.068V102.303H271.728Z" fill="black"/>
<path d="M273.305 67.2252C273.305 68.7702 272.052 70.0227 270.507 70.0227C268.962 70.0227 267.71 68.7702 267.71 67.2252C267.71 65.6802 268.962 64.4277 270.507 64.4277C272.052 64.4277 273.305 65.6802 273.305 67.2252Z" fill="black"/>
<path d="M288.92 67.2252C288.92 68.7702 287.667 70.0227 286.122 70.0227C284.577 70.0227 283.325 68.7702 283.325 67.2252C283.325 65.6802 284.577 64.4277 286.122 64.4277C287.667 64.4277 288.92 65.6802 288.92 67.2252Z" fill="black"/>
<path fill-rule="evenodd" clip-rule="evenodd" d="M273.957 72.2021C274.987 73.4736 276.556 74.2822 278.314 74.2822C280.073 74.2822 281.642 73.4736 282.671 72.2021L285.043 74.1228C283.459 76.079 281.032 77.3339 278.314 77.3339C275.596 77.3339 273.17 76.079 271.585 74.1228L273.957 72.2021Z" fill="black"/>
<path d="M51.9707 91.9312V105.863H56.2847" stroke="black" stroke-width="4"/>
<path d="M41.3902 94.0525V102.755H45.7041" stroke="black" stroke-width="4"/>
<path d="M22.9297 27.0796C29.3028 28.9944 32.5932 31.7518 35.3845 34.8786C35.3845 30.9822 31.9134 18.6956 43.9119 31.7518C43.9119 23.9397 48.8746 23.5087 51.9704 32.8274" stroke="black" stroke-width="4" stroke-linejoin="round"/>
<path d="M75.5425 59.4756C80.9619 59.4756 87.6843 51.4294 89.6116 43.9514" stroke="black" stroke-width="4"/>
<rect x="17.8062" y="33.2793" width="59.2362" height="59.2362" rx="29.6181" fill="#FFC408" stroke="black" stroke-width="5"/>
<path d="M22.7354 63.3306C9.68009 63.3306 3.74658 54.192 2.31141 43.8572" stroke="black" stroke-width="4"/>
<path d="M68.2603 58.9814C64.2442 63.1055 58.0226 65.7525 51.0385 65.7525C44.4648 65.7525 38.5666 63.4075 34.5472 59.6928" stroke="black" stroke-width="4"/>
<line y1="-2" x2="8.40011" y2="-2" transform="matrix(3.31206e-08 1 1 -5.76882e-08 59.6035 47.6372)" stroke="black" stroke-width="4"/>
<path d="M46.0127 47.6377L46.0127 56.0378" stroke="black" stroke-width="4"/>
</g>
<defs>
<clipPath id="clip0_9246_2130">
<rect width="324" height="110" fill="white"/>
</clipPath>
</defs>
</svg>
