<svg width="290" height="170" viewBox="0 0 290 170" fill="none" xmlns="http://www.w3.org/2000/svg">
<g clip-path="url(#clip0_9749_3298)">
<path opacity="0.9" d="M200.868 95.9026L161.132 73.2534V27.556L200.868 4.90625L240.604 27.556V73.2534L200.868 95.9026Z" fill="#E76BEC"/>
<path d="M200.868 96.1023L161.132 73.4532V27.7557L200.868 5.10596L240.604 27.7557V73.4532L200.868 96.1023Z" stroke="#1844F5" stroke-width="4"/>
<path d="M200.868 50.4053V96.1021" stroke="black" stroke-width="4"/>
<path d="M161.132 27.7559L200.868 50.405L240.604 27.7559" stroke="#1844F5" stroke-width="4"/>
<path opacity="0.9" d="M161.132 118.656L121.395 96.0074V50.3099L161.132 27.6602L200.868 50.3099V96.0074L161.132 118.656Z" fill="#976CF0"/>
<path d="M161.132 118.856L121.395 96.2071V50.5096L161.132 27.8599L200.868 50.5096V96.2071L161.132 118.856Z" stroke="#1844F5" stroke-width="4"/>
<path d="M161.132 73.1592V118.856" stroke="black" stroke-width="4"/>
<path d="M121.395 50.5098L161.132 73.1589L200.868 50.5098" stroke="black" stroke-width="4"/>
<path opacity="0.9" d="M200.868 141.305L161.132 118.656V72.9588L200.868 50.3091L240.604 72.9588V118.656L200.868 141.305Z" fill="#3EC1FA"/>
<path d="M200.868 141.505L161.132 118.856V73.1585L200.868 50.5088L240.604 73.1585V118.856L200.868 141.505Z" stroke="#1844F5" stroke-width="4"/>
<path d="M200.868 95.8081V141.505" stroke="black" stroke-width="4"/>
<path d="M161.132 73.1587L200.868 95.8078L240.604 73.1587" stroke="#1844F5" stroke-width="4"/>
<path opacity="0.9" d="M240.604 164.055L200.868 141.406V95.7083L240.604 73.0586L280.341 95.7083V141.406L240.604 164.055Z" fill="#75F96A"/>
<path d="M240.604 164.255L200.868 141.605V95.908L240.604 73.2583L280.341 95.908V141.605L240.604 164.255Z" stroke="#1844F5" stroke-width="4"/>
<path d="M240.604 118.558V164.254" stroke="#1844F5" stroke-width="4"/>
<path d="M200.868 95.9082L240.604 118.557L280.341 95.9082" stroke="#1844F5" stroke-width="4"/>
<path opacity="0.9" d="M121.395 141.6L81.6591 118.951V73.2537L121.395 50.604L161.132 73.2537V118.951L121.395 141.6Z" fill="#E76BEC"/>
<path d="M121.395 141.8L81.6591 119.151V73.4534L121.395 50.8037L161.132 73.4534V119.151L121.395 141.8Z" stroke="#1844F5" stroke-width="4"/>
<path d="M121.396 96.103V141.8" stroke="#1844F5" stroke-width="4"/>
<path d="M81.6591 73.4536L121.395 96.1027L161.132 73.4536" stroke="#1844F5" stroke-width="4"/>
</g>
<path d="M79.5403 39.4489C80.5099 36.6057 81.143 34.2355 82.1391 32.0571C82.6699 30.9004 83.6872 29.3453 84.6692 29.2067C85.6919 29.0631 87.2676 30.1535 87.9975 31.154C90.1359 34.0774 92.0688 37.2039 93.8796 40.3455C94.2713 41.0243 94.4168 42.3678 93.7632 43.1422C93.2708 44.0151 91.534 42.8263 90.9969 42.174C88.9692 39.6681 87.1705 36.9479 85.13 34.08C84.4494 36.0756 83.9179 37.7482 83.3111 39.4132C81.6774 43.8609 79.028 44.6626 75.482 41.5837C70.4612 37.2328 65.5467 32.7419 60.5733 28.3091C59.9768 27.774 59.3682 27.2743 58.7423 26.7683C57.8603 25.8712 57.6766 26.1815 58.158 27.1113C59.1101 28.8877 60.0389 30.6755 60.991 32.4519C62.6799 35.6086 64.3921 38.754 66.0576 41.922C66.4373 42.6361 66.6761 43.4776 66.9804 44.1841C67.51 45.4293 66.931 46.7273 66.2842 47.4248C65.7315 48.0175 64.8549 48.532 63.3147 47.8517C60.1138 46.3876 57.0146 44.6825 53.9387 42.9662C46.9975 39.1068 40.0918 35.2008 32.9044 31.5496C34.6278 33.8055 36.3391 36.0968 38.0979 38.3062C41.9808 43.1954 45.9517 47.9976 49.7586 52.9386C51.0714 54.6281 52.968 56.4905 51.441 58.9122C50.0028 61.1876 47.6409 60.3469 45.6331 59.9529C39.3264 58.6873 33.0505 57.2742 26.7506 55.9317C26.1142 55.7991 25.465 55.7611 24.1621 55.5842C26.9008 58.7462 29.1386 61.6065 31.6589 64.1528C36.9569 69.518 42.4191 74.7445 47.8052 80.0226C51.3979 83.5355 50.9441 85.9512 46.1854 87.5131C40.2383 89.4758 34.2068 91.2291 28.2145 93.096C27.1022 93.4451 26.0464 93.9142 24.3211 94.576C25.5442 95.1011 26.201 95.4595 26.8946 95.6527C34.8538 97.8976 42.819 100.125 50.8015 102.358C52.8997 102.944 55.3857 103.135 56.2423 105.592C57.1381 108.161 55.083 109.676 53.647 111.317C52.1523 113.016 50.6003 114.654 49.245 116.801C51.1812 116.434 53.1001 116.061 55.0363 115.695C56.6178 115.397 58.1834 114.975 59.7687 114.838C60.332 114.785 61.4211 115.361 61.4513 115.729C61.5184 116.389 61.6262 117.044 60.6254 117.751C60.2097 118.056 59.5921 118.268 59.0281 118.38C55.1775 119.221 51.3488 120.168 47.4553 120.735C46.3106 120.894 44.543 120.309 43.9215 119.448C43.4086 118.725 43.8158 116.788 44.4596 115.871C46.0785 113.523 48.077 111.432 49.9144 109.242C50.5092 108.526 51.1387 107.822 51.9806 106.838C50.0797 106.245 48.5079 105.771 46.9248 105.274C38.6621 102.72 30.3994 100.166 22.1427 97.5943C21.5824 97.41 21.0401 97.1727 20.5333 96.8887C18.8288 95.8905 18.4069 93.93 19.879 92.6398C21.2164 91.4594 22.8363 90.4216 24.5141 89.8417C30.7127 87.7125 36.9957 85.7927 43.2448 83.801C43.9203 83.5905 44.5672 83.3497 45.4935 83.032C41.6266 79.181 37.8719 75.629 34.3401 71.8802C30.1214 67.4046 26.0435 62.8017 21.9716 58.1811C20.7364 56.778 18.9566 55.3155 20.0167 53.1207C21.0768 50.926 23.343 51.0766 25.2589 51.3975C31.302 52.4081 37.3248 53.6496 43.343 54.7902C44.3093 54.9835 45.2929 55.183 46.5716 54.9739C44.0558 51.6152 41.5401 48.2565 39.0009 44.9091C35.2867 39.982 31.5432 35.084 27.8524 30.1456C26.9681 28.9696 25.8593 27.6523 26.9692 26.1111C28.1085 24.5408 29.7451 24.9385 31.1572 25.6516C36.9211 28.5658 42.6963 31.504 48.3887 34.5708C52.9747 37.0558 57.4538 39.7401 62.4826 42.0688C61.2035 39.5379 59.825 37.07 58.6627 34.4824C57.1839 31.2236 55.7812 27.9131 54.5939 24.542C54.224 23.5138 54.2953 21.5345 54.8684 21.1676C55.7103 20.6405 57.5073 20.7393 58.3697 21.3513C61.5315 23.6152 64.545 26.1428 67.4884 28.7043C71.4028 32.0167 75.1469 35.4855 79.5403 39.4489Z" fill="#E76BEC"/>
<defs>
<clipPath id="clip0_9749_3298">
<rect width="218" height="169.161" fill="white" transform="translate(72)"/>
</clipPath>
</defs>
</svg>
