<svg width="170" height="164" viewBox="0 0 170 164" fill="none" xmlns="http://www.w3.org/2000/svg">
<g clip-path="url(#clip0_9249_2133)">
<circle cx="21.9089" cy="76.3632" r="14.6017" fill="#FAE143" stroke="black" stroke-width="4"/>
<mask id="path-2-inside-1_9249_2133" fill="white">
<rect x="140.62" y="63.3623" width="26.002" height="26.002" rx="1"/>
</mask>
<rect x="140.62" y="63.3623" width="26.002" height="26.002" rx="1" fill="#3EC1FA" stroke="black" stroke-width="8" stroke-linejoin="round" mask="url(#path-2-inside-1_9249_2133)"/>
<path d="M46 119.63L60.049 54.3699L112.166 98.783L46 119.63Z" fill="#E76BEC"/>
<path d="M2 140.253C4.3826 137.561 12.1393 125.983 24.1055 101.204C28.0049 93.1291 32.1142 102.909 30.0207 115.543M24.1055 120.265C34.7832 111.882 55.898 93.1808 58.7227 91.4425C64.456 87.9143 64.9734 96.373 61.5159 99.969C58.8684 102.722 41.534 119.295 33.1065 126.619M50.1709 111.666C52.688 109.434 60.1097 109.676 57.4623 116.824M57.4623 116.824C49.3142 124.666 39.4602 132.708 39.4602 132.708M57.4623 116.824C58.6095 117.088 62.4229 120.693 60.1097 123.784M60.1097 123.784C55.9295 129.371 44.9039 138.485 44.9039 138.485M60.1097 123.784C61.2569 124.093 65.5513 126.769 64.456 130.694C62.6919 137.015 32.601 159.271 29.0271 162.447" stroke="#1844F5" stroke-width="4"/>
<path d="M135.042 152.051C124.79 146.61 100.796 134.001 96.9058 130.763C94.6161 129.658 89.1364 121.134 119.587 130.193M116.167 129.206C107.391 120.124 92.5731 101.963 90.3428 97.9105C87.5549 92.8451 91.3226 89.1323 97.8194 94.9784C104.031 100.568 123.291 118.483 123.291 118.483M113.442 109.343C106.492 99.6491 94.0383 82.2517 99.7238 80.15C104.541 78.3694 112.493 95.0177 129.861 112.771M106.482 84.6348C106.482 84.6348 108.282 76.8524 112.078 80.4087C115.873 83.9651 132.593 103.215 135.772 106.188M115.789 84.273C119.582 79.9924 121.862 78.1489 136.767 94.3611C151.276 110.142 162.898 122.738 166.094 125.628" stroke="#1844F5" stroke-width="4"/>
<path d="M74.7317 2.7002C65.3329 8.59269 45.5711 21.8679 41.7141 27.8286M41.7141 27.8286C39.8148 31.3349 40.107 69.1738 51.2103 68.7355M41.7141 27.8286C36.6982 33.3803 25.6101 45.8163 22.2834 50.4735C19.9636 53.7212 29.5879 54.5642 40.973 42.7465M48.8729 33.3803C48.3657 45.9328 51.0643 74.0533 52.2331 76.6246C53.694 79.8387 58.0769 78.5239 58.223 68.7355V33.3803M57.5306 74.2151C65.9004 76.6246 66.3623 61.7459 66.9004 54.5642C67.9702 40.2867 68.7708 34.4676 74.7317 29.7279M70.6861 34.2622C73.9834 37.6051 73.3829 45.0496 70.4929 54.5642C68.779 60.207 71.1914 61.1202 73.3829 61.4124C76.6058 61.8421 84.73 39.3051 89.1953 25.0528" stroke="#1844F5" stroke-width="4" stroke-linejoin="round"/>
</g>
<defs>
<clipPath id="clip0_9249_2133">
<rect width="170" height="163" fill="white" transform="translate(0 0.5)"/>
</clipPath>
</defs>
</svg>
