<svg width="380" height="110" viewBox="0 0 380 110" fill="none" xmlns="http://www.w3.org/2000/svg">
<g clip-path="url(#clip0_9248_2215)">
<path d="M40.0006 105.863L5.06606 85.9512V45.7759L40.0006 25.8633L74.9351 45.7759V85.9512L40.0006 105.863Z" fill="#00E79B"/>
<path d="M40.0006 105.863L5.06606 85.9512V45.7759L40.0006 25.8633L74.9351 45.7759V85.9512L40.0006 105.863Z" stroke="#1844F5" stroke-width="4" stroke-linejoin="round"/>
<path d="M40.0006 65.688L74.9351 45.7759" stroke="#1844F5" stroke-width="4"/>
<path d="M40 105.863L39.7776 65.6528L5.0655 45.355" stroke="#1844F5" stroke-width="4" stroke-linejoin="round"/>
<path d="M325.066 105.863L290.131 85.9512V45.7759L325.066 25.8633L360 45.7759V85.9512L325.066 105.863Z" fill="#00E79B"/>
<path d="M324.843 65.6528L325.065 105.863L290.405 85.5354L290.13 45.355L324.843 65.6528Z" fill="#3EC1FA"/>
<path d="M325.066 105.863L290.131 85.9512V45.7759L325.066 25.8633L360 45.7759V85.9512L325.066 105.863Z" stroke="#1844F5" stroke-width="4" stroke-linejoin="round"/>
<path d="M325.066 65.688L360 45.7759" stroke="#1844F5" stroke-width="4"/>
<path d="M325.065 105.863L324.843 65.6528L290.13 45.355" stroke="#1844F5" stroke-width="4" stroke-linejoin="round"/>
<path d="M347.73 63.5875H344.265L337.335 87.8421H340.8L347.73 63.5875Z" fill="#1844F5"/>
<path d="M120 85L85.0656 65.0879V24.9127L120 5L154.935 24.9127V65.0879L120 85Z" fill="#3EC1FA"/>
<path d="M120 85L85.0656 65.0879V24.9127L120 5L154.935 24.9127V65.0879L120 85Z" stroke="#1844F5" stroke-width="4" stroke-linejoin="round"/>
<path d="M120 44.8247L154.935 24.9126" stroke="#1844F5" stroke-width="4"/>
<path d="M120 85L119.777 44.7895L85.065 24.4917" stroke="#1844F5" stroke-width="4" stroke-linejoin="round"/>
<path d="M166.536 75.82C165.156 75.8358 164.024 74.7293 164.008 73.3487C163.992 71.9681 165.099 70.8361 166.479 70.8204L166.536 75.82ZM271.034 71.5524C272.011 72.5287 272.011 74.1116 271.034 75.088L255.124 90.9979C254.148 91.9742 252.565 91.9742 251.589 90.9979C250.613 90.0215 250.613 88.4386 251.589 87.4623L265.731 73.3202L251.589 59.1781C250.613 58.2017 250.613 56.6188 251.589 55.6425C252.565 54.6662 254.148 54.6662 255.124 55.6425L271.034 71.5524ZM166.479 70.8204C177.837 70.6909 189.162 70.8202 200.465 70.8202V75.8202C189.081 75.8202 177.861 75.691 166.536 75.82L166.479 70.8204ZM200.465 70.8202C200.493 70.8202 200.521 70.8202 200.549 70.8202C200.577 70.8202 200.605 70.8202 200.634 70.8202C200.662 70.8202 200.69 70.8202 200.718 70.8202C200.746 70.8202 200.774 70.8202 200.803 70.8202C200.831 70.8202 200.859 70.8202 200.887 70.8202C200.915 70.8202 200.943 70.8202 200.972 70.8202C201 70.8202 201.028 70.8202 201.056 70.8202C201.084 70.8202 201.112 70.8202 201.141 70.8202C201.169 70.8202 201.197 70.8202 201.225 70.8202C201.253 70.8202 201.281 70.8202 201.31 70.8202C201.338 70.8202 201.366 70.8202 201.394 70.8202C201.422 70.8202 201.45 70.8202 201.479 70.8202C201.507 70.8202 201.535 70.8202 201.563 70.8202C201.591 70.8202 201.619 70.8202 201.648 70.8202C201.676 70.8202 201.704 70.8202 201.732 70.8202C201.76 70.8202 201.788 70.8202 201.817 70.8202C201.845 70.8202 201.873 70.8202 201.901 70.8202C201.929 70.8202 201.957 70.8202 201.986 70.8202C202.014 70.8202 202.042 70.8202 202.07 70.8202C202.098 70.8202 202.126 70.8202 202.155 70.8202C202.183 70.8202 202.211 70.8202 202.239 70.8202C202.267 70.8202 202.295 70.8202 202.324 70.8202C202.352 70.8202 202.38 70.8202 202.408 70.8202C202.436 70.8202 202.464 70.8202 202.492 70.8202C202.521 70.8202 202.549 70.8202 202.577 70.8202C202.605 70.8202 202.633 70.8202 202.661 70.8202C202.69 70.8202 202.718 70.8202 202.746 70.8202C202.774 70.8202 202.802 70.8202 202.83 70.8202C202.859 70.8202 202.887 70.8202 202.915 70.8202C202.943 70.8202 202.971 70.8202 202.999 70.8202C203.028 70.8202 203.056 70.8202 203.084 70.8202C203.112 70.8202 203.14 70.8202 203.168 70.8202C203.197 70.8202 203.225 70.8202 203.253 70.8202C203.281 70.8202 203.309 70.8202 203.337 70.8202C203.366 70.8202 203.394 70.8202 203.422 70.8202C203.45 70.8202 203.478 70.8202 203.506 70.8202C203.535 70.8202 203.563 70.8202 203.591 70.8202C203.619 70.8202 203.647 70.8202 203.675 70.8202C203.704 70.8202 203.732 70.8202 203.76 70.8202C203.788 70.8202 203.816 70.8202 203.844 70.8202C203.873 70.8202 203.901 70.8202 203.929 70.8202C203.957 70.8202 203.985 70.8202 204.013 70.8202C204.042 70.8202 204.07 70.8202 204.098 70.8202C204.126 70.8202 204.154 70.8202 204.182 70.8202C204.211 70.8202 204.239 70.8202 204.267 70.8202C204.295 70.8202 204.323 70.8202 204.351 70.8202C204.379 70.8202 204.408 70.8202 204.436 70.8202C204.464 70.8202 204.492 70.8202 204.52 70.8202C204.548 70.8202 204.577 70.8202 204.605 70.8202C204.633 70.8202 204.661 70.8202 204.689 70.8202C204.717 70.8202 204.746 70.8202 204.774 70.8202C204.802 70.8202 204.83 70.8202 204.858 70.8202C204.886 70.8202 204.915 70.8202 204.943 70.8202C204.971 70.8202 204.999 70.8202 205.027 70.8202C205.055 70.8202 205.084 70.8202 205.112 70.8202C205.14 70.8202 205.168 70.8202 205.196 70.8202C205.224 70.8202 205.253 70.8202 205.281 70.8202C205.309 70.8202 205.337 70.8202 205.365 70.8202C205.393 70.8202 205.422 70.8202 205.45 70.8202C205.478 70.8202 205.506 70.8202 205.534 70.8202C205.562 70.8202 205.591 70.8202 205.619 70.8202C205.647 70.8202 205.675 70.8202 205.703 70.8202C205.731 70.8202 205.76 70.8202 205.788 70.8202C205.816 70.8202 205.844 70.8202 205.872 70.8202C205.9 70.8202 205.929 70.8202 205.957 70.8202C205.985 70.8202 206.013 70.8202 206.041 70.8202C206.069 70.8202 206.097 70.8202 206.126 70.8202C206.154 70.8202 206.182 70.8202 206.21 70.8202C206.238 70.8202 206.266 70.8202 206.295 70.8202C206.323 70.8202 206.351 70.8202 206.379 70.8202C206.407 70.8202 206.435 70.8202 206.464 70.8202C206.492 70.8202 206.52 70.8202 206.548 70.8202C206.576 70.8202 206.604 70.8202 206.633 70.8202C206.661 70.8202 206.689 70.8202 206.717 70.8202C206.745 70.8202 206.773 70.8202 206.802 70.8202C206.83 70.8202 206.858 70.8202 206.886 70.8202C206.914 70.8202 206.942 70.8202 206.971 70.8202C206.999 70.8202 207.027 70.8202 207.055 70.8202C207.083 70.8202 207.111 70.8202 207.14 70.8202C207.168 70.8202 207.196 70.8202 207.224 70.8202C207.252 70.8202 207.28 70.8202 207.309 70.8202C207.337 70.8202 207.365 70.8202 207.393 70.8202C207.421 70.8202 207.449 70.8202 207.478 70.8202C207.506 70.8202 207.534 70.8202 207.562 70.8202C207.59 70.8202 207.618 70.8202 207.647 70.8202C207.675 70.8202 207.703 70.8202 207.731 70.8202C207.759 70.8202 207.787 70.8202 207.816 70.8202C207.844 70.8202 207.872 70.8202 207.9 70.8202C207.928 70.8202 207.956 70.8202 207.984 70.8202C208.013 70.8202 208.041 70.8202 208.069 70.8202C208.097 70.8202 208.125 70.8202 208.153 70.8202C208.182 70.8202 208.21 70.8202 208.238 70.8202C208.266 70.8202 208.294 70.8202 208.322 70.8202C208.351 70.8202 208.379 70.8202 208.407 70.8202C208.435 70.8202 208.463 70.8202 208.491 70.8202C208.52 70.8202 208.548 70.8202 208.576 70.8202C208.604 70.8202 208.632 70.8202 208.66 70.8202C208.689 70.8202 208.717 70.8202 208.745 70.8202C208.773 70.8202 208.801 70.8202 208.829 70.8202C208.858 70.8202 208.886 70.8202 208.914 70.8202C208.942 70.8202 208.97 70.8202 208.998 70.8202C209.027 70.8202 209.055 70.8202 209.083 70.8202C209.111 70.8202 209.139 70.8202 209.167 70.8202C209.196 70.8202 209.224 70.8202 209.252 70.8202C209.28 70.8202 209.308 70.8202 209.336 70.8202C209.365 70.8202 209.393 70.8202 209.421 70.8202C209.449 70.8202 209.477 70.8202 209.505 70.8202C209.534 70.8202 209.562 70.8202 209.59 70.8202C209.618 70.8202 209.646 70.8202 209.674 70.8202C209.703 70.8202 209.731 70.8202 209.759 70.8202C209.787 70.8202 209.815 70.8202 209.843 70.8202C209.871 70.8202 209.9 70.8202 209.928 70.8202C209.956 70.8202 209.984 70.8202 210.012 70.8202C210.04 70.8202 210.069 70.8202 210.097 70.8202C210.125 70.8202 210.153 70.8202 210.181 70.8202C210.209 70.8202 210.238 70.8202 210.266 70.8202C210.294 70.8202 210.322 70.8202 210.35 70.8202C210.378 70.8202 210.407 70.8202 210.435 70.8202C210.463 70.8202 210.491 70.8202 210.519 70.8202C210.547 70.8202 210.576 70.8202 210.604 70.8202C210.632 70.8202 210.66 70.8202 210.688 70.8202C210.716 70.8202 210.745 70.8202 210.773 70.8202C210.801 70.8202 210.829 70.8202 210.857 70.8202C210.885 70.8202 210.914 70.8202 210.942 70.8202C210.97 70.8202 210.998 70.8202 211.026 70.8202C211.054 70.8202 211.083 70.8202 211.111 70.8202C211.139 70.8202 211.167 70.8202 211.195 70.8202C211.223 70.8202 211.252 70.8202 211.28 70.8202C211.308 70.8202 211.336 70.8202 211.364 70.8202C211.392 70.8202 211.421 70.8202 211.449 70.8202C211.477 70.8202 211.505 70.8202 211.533 70.8202C211.561 70.8202 211.59 70.8202 211.618 70.8202C211.646 70.8202 211.674 70.8202 211.702 70.8202C211.73 70.8202 211.758 70.8202 211.787 70.8202C211.815 70.8202 211.843 70.8202 211.871 70.8202C211.899 70.8202 211.927 70.8202 211.956 70.8202C211.984 70.8202 212.012 70.8202 212.04 70.8202C212.068 70.8202 212.096 70.8202 212.125 70.8202C212.153 70.8202 212.181 70.8202 212.209 70.8202C212.237 70.8202 212.265 70.8202 212.294 70.8202C212.322 70.8202 212.35 70.8202 212.378 70.8202C212.406 70.8202 212.434 70.8202 212.463 70.8202C212.491 70.8202 212.519 70.8202 212.547 70.8202C212.575 70.8202 212.603 70.8202 212.632 70.8202C212.66 70.8202 212.688 70.8202 212.716 70.8202C212.744 70.8202 212.772 70.8202 212.801 70.8202C212.829 70.8202 212.857 70.8202 212.885 70.8202C212.913 70.8202 212.941 70.8202 212.97 70.8202C212.998 70.8202 213.026 70.8202 213.054 70.8202C213.082 70.8202 213.11 70.8202 213.139 70.8202C213.167 70.8202 213.195 70.8202 213.223 70.8202C213.251 70.8202 213.279 70.8202 213.308 70.8202C213.336 70.8202 213.364 70.8202 213.392 70.8202C213.42 70.8202 213.448 70.8202 213.477 70.8202C213.505 70.8202 213.533 70.8202 213.561 70.8202C213.589 70.8202 213.617 70.8202 213.645 70.8202C213.674 70.8202 213.702 70.8202 213.73 70.8202C213.758 70.8202 213.786 70.8202 213.814 70.8202C213.843 70.8202 213.871 70.8202 213.899 70.8202C213.927 70.8202 213.955 70.8202 213.983 70.8202C214.012 70.8202 214.04 70.8202 214.068 70.8202C214.096 70.8202 214.124 70.8202 214.152 70.8202C214.181 70.8202 214.209 70.8202 214.237 70.8202C214.265 70.8202 214.293 70.8202 214.321 70.8202C214.35 70.8202 214.378 70.8202 214.406 70.8202C214.434 70.8202 214.462 70.8202 214.49 70.8202C214.519 70.8202 214.547 70.8202 214.575 70.8202C214.603 70.8202 214.631 70.8202 214.659 70.8202C214.688 70.8202 214.716 70.8202 214.744 70.8202C214.772 70.8202 214.8 70.8202 214.828 70.8202C214.857 70.8202 214.885 70.8202 214.913 70.8202C214.941 70.8202 214.969 70.8202 214.997 70.8202C215.026 70.8202 215.054 70.8202 215.082 70.8202C215.11 70.8202 215.138 70.8202 215.166 70.8202C215.195 70.8202 215.223 70.8202 215.251 70.8202C215.279 70.8202 215.307 70.8202 215.335 70.8202C215.364 70.8202 215.392 70.8202 215.42 70.8202C215.448 70.8202 215.476 70.8202 215.504 70.8202C215.532 70.8202 215.561 70.8202 215.589 70.8202C215.617 70.8202 215.645 70.8202 215.673 70.8202C215.701 70.8202 215.73 70.8202 215.758 70.8202C215.786 70.8202 215.814 70.8202 215.842 70.8202C215.87 70.8202 215.899 70.8202 215.927 70.8202C215.955 70.8202 215.983 70.8202 216.011 70.8202C216.039 70.8202 216.068 70.8202 216.096 70.8202C216.124 70.8202 216.152 70.8202 216.18 70.8202C216.208 70.8202 216.237 70.8202 216.265 70.8202C216.293 70.8202 216.321 70.8202 216.349 70.8202C216.377 70.8202 216.406 70.8202 216.434 70.8202C216.462 70.8202 216.49 70.8202 216.518 70.8202C216.546 70.8202 216.575 70.8202 216.603 70.8202C216.631 70.8202 216.659 70.8202 216.687 70.8202C216.715 70.8202 216.744 70.8202 216.772 70.8202C216.8 70.8202 216.828 70.8202 216.856 70.8202C216.884 70.8202 216.913 70.8202 216.941 70.8202C216.969 70.8202 216.997 70.8202 217.025 70.8202C217.053 70.8202 217.082 70.8202 217.11 70.8202C217.138 70.8202 217.166 70.8202 217.194 70.8202C217.222 70.8202 217.25 70.8202 217.279 70.8202C217.307 70.8202 217.335 70.8202 217.363 70.8202C217.391 70.8202 217.419 70.8202 217.448 70.8202C217.476 70.8202 217.504 70.8202 217.532 70.8202C217.56 70.8202 217.588 70.8202 217.617 70.8202C217.645 70.8202 217.673 70.8202 217.701 70.8202C217.729 70.8202 217.757 70.8202 217.786 70.8202C217.814 70.8202 217.842 70.8202 217.87 70.8202C217.898 70.8202 217.926 70.8202 217.955 70.8202C217.983 70.8202 218.011 70.8202 218.039 70.8202C218.067 70.8202 218.095 70.8202 218.124 70.8202C218.152 70.8202 218.18 70.8202 218.208 70.8202C218.236 70.8202 218.264 70.8202 218.293 70.8202C218.321 70.8202 218.349 70.8202 218.377 70.8202C218.405 70.8202 218.433 70.8202 218.462 70.8202C218.49 70.8202 218.518 70.8202 218.546 70.8202C218.574 70.8202 218.602 70.8202 218.631 70.8202C218.659 70.8202 218.687 70.8202 218.715 70.8202C218.743 70.8202 218.771 70.8202 218.8 70.8202C218.828 70.8202 218.856 70.8202 218.884 70.8202C218.912 70.8202 218.94 70.8202 218.969 70.8202C218.997 70.8202 219.025 70.8202 219.053 70.8202C219.081 70.8202 219.109 70.8202 219.137 70.8202C219.166 70.8202 219.194 70.8202 219.222 70.8202C219.25 70.8202 219.278 70.8202 219.306 70.8202C219.335 70.8202 219.363 70.8202 219.391 70.8202C219.419 70.8202 219.447 70.8202 219.475 70.8202C219.504 70.8202 219.532 70.8202 219.56 70.8202C219.588 70.8202 219.616 70.8202 219.644 70.8202C219.673 70.8202 219.701 70.8202 219.729 70.8202C219.757 70.8202 219.785 70.8202 219.813 70.8202C219.842 70.8202 219.87 70.8202 219.898 70.8202C219.926 70.8202 219.954 70.8202 219.982 70.8202C220.011 70.8202 220.039 70.8202 220.067 70.8202C220.095 70.8202 220.123 70.8202 220.151 70.8202C220.18 70.8202 220.208 70.8202 220.236 70.8202C220.264 70.8202 220.292 70.8202 220.32 70.8202C220.349 70.8202 220.377 70.8202 220.405 70.8202C220.433 70.8202 220.461 70.8202 220.489 70.8202C220.518 70.8202 220.546 70.8202 220.574 70.8202C220.602 70.8202 220.63 70.8202 220.658 70.8202C220.687 70.8202 220.715 70.8202 220.743 70.8202C220.771 70.8202 220.799 70.8202 220.827 70.8202C220.856 70.8202 220.884 70.8202 220.912 70.8202C220.94 70.8202 220.968 70.8202 220.996 70.8202C221.024 70.8202 221.053 70.8202 221.081 70.8202C221.109 70.8202 221.137 70.8202 221.165 70.8202C221.193 70.8202 221.222 70.8202 221.25 70.8202C221.278 70.8202 221.306 70.8202 221.334 70.8202C221.362 70.8202 221.391 70.8202 221.419 70.8202C221.447 70.8202 221.475 70.8202 221.503 70.8202C221.531 70.8202 221.56 70.8202 221.588 70.8202C221.616 70.8202 221.644 70.8202 221.672 70.8202C221.7 70.8202 221.729 70.8202 221.757 70.8202C221.785 70.8202 221.813 70.8202 221.841 70.8202C221.869 70.8202 221.898 70.8202 221.926 70.8202C221.954 70.8202 221.982 70.8202 222.01 70.8202C222.038 70.8202 222.067 70.8202 222.095 70.8202C222.123 70.8202 222.151 70.8202 222.179 70.8202C222.207 70.8202 222.236 70.8202 222.264 70.8202C222.292 70.8202 222.32 70.8202 222.348 70.8202C222.376 70.8202 222.405 70.8202 222.433 70.8202C222.461 70.8202 222.489 70.8202 222.517 70.8202C222.545 70.8202 222.574 70.8202 222.602 70.8202C222.63 70.8202 222.658 70.8202 222.686 70.8202C222.714 70.8202 222.743 70.8202 222.771 70.8202C222.799 70.8202 222.827 70.8202 222.855 70.8202C222.883 70.8202 222.911 70.8202 222.94 70.8202C222.968 70.8202 222.996 70.8202 223.024 70.8202C223.052 70.8202 223.08 70.8202 223.109 70.8202C223.137 70.8202 223.165 70.8202 223.193 70.8202C223.221 70.8202 223.249 70.8202 223.278 70.8202C223.306 70.8202 223.334 70.8202 223.362 70.8202C223.39 70.8202 223.418 70.8202 223.447 70.8202C223.475 70.8202 223.503 70.8202 223.531 70.8202C223.559 70.8202 223.587 70.8202 223.616 70.8202C223.644 70.8202 223.672 70.8202 223.7 70.8202C223.728 70.8202 223.756 70.8202 223.785 70.8202C223.813 70.8202 223.841 70.8202 223.869 70.8202C223.897 70.8202 223.925 70.8202 223.954 70.8202C223.982 70.8202 224.01 70.8202 224.038 70.8202C224.066 70.8202 224.094 70.8202 224.123 70.8202C224.151 70.8202 224.179 70.8202 224.207 70.8202C224.235 70.8202 224.263 70.8202 224.292 70.8202C224.32 70.8202 224.348 70.8202 224.376 70.8202C224.404 70.8202 224.432 70.8202 224.461 70.8202C224.489 70.8202 224.517 70.8202 224.545 70.8202C224.573 70.8202 224.601 70.8202 224.63 70.8202C224.658 70.8202 224.686 70.8202 224.714 70.8202C224.742 70.8202 224.77 70.8202 224.798 70.8202C224.827 70.8202 224.855 70.8202 224.883 70.8202C224.911 70.8202 224.939 70.8202 224.967 70.8202C224.996 70.8202 225.024 70.8202 225.052 70.8202C225.08 70.8202 225.108 70.8202 225.136 70.8202C225.165 70.8202 225.193 70.8202 225.221 70.8202C225.249 70.8202 225.277 70.8202 225.305 70.8202C225.334 70.8202 225.362 70.8202 225.39 70.8202C225.418 70.8202 225.446 70.8202 225.474 70.8202C225.503 70.8202 225.531 70.8202 225.559 70.8202C225.587 70.8202 225.615 70.8202 225.643 70.8202C225.672 70.8202 225.7 70.8202 225.728 70.8202C225.756 70.8202 225.784 70.8202 225.812 70.8202C225.841 70.8202 225.869 70.8202 225.897 70.8202C225.925 70.8202 225.953 70.8202 225.981 70.8202C226.01 70.8202 226.038 70.8202 226.066 70.8202C226.094 70.8202 226.122 70.8202 226.15 70.8202C226.179 70.8202 226.207 70.8202 226.235 70.8202C226.263 70.8202 226.291 70.8202 226.319 70.8202C226.348 70.8202 226.376 70.8202 226.404 70.8202C226.432 70.8202 226.46 70.8202 226.488 70.8202C226.517 70.8202 226.545 70.8202 226.573 70.8202C226.601 70.8202 226.629 70.8202 226.657 70.8202C226.685 70.8202 226.714 70.8202 226.742 70.8202C226.77 70.8202 226.798 70.8202 226.826 70.8202C226.854 70.8202 226.883 70.8202 226.911 70.8202C226.939 70.8202 226.967 70.8202 226.995 70.8202C227.023 70.8202 227.052 70.8202 227.08 70.8202C227.108 70.8202 227.136 70.8202 227.164 70.8202C227.192 70.8202 227.221 70.8202 227.249 70.8202C227.277 70.8202 227.305 70.8202 227.333 70.8202C227.361 70.8202 227.39 70.8202 227.418 70.8202C227.446 70.8202 227.474 70.8202 227.502 70.8202C227.53 70.8202 227.559 70.8202 227.587 70.8202C227.615 70.8202 227.643 70.8202 227.671 70.8202C227.699 70.8202 227.728 70.8202 227.756 70.8202C227.784 70.8202 227.812 70.8202 227.84 70.8202C227.868 70.8202 227.897 70.8202 227.925 70.8202C227.953 70.8202 227.981 70.8202 228.009 70.8202C228.037 70.8202 228.066 70.8202 228.094 70.8202C228.122 70.8202 228.15 70.8202 228.178 70.8202C228.206 70.8202 228.235 70.8202 228.263 70.8202C228.291 70.8202 228.319 70.8202 228.347 70.8202C228.375 70.8202 228.403 70.8202 228.432 70.8202C228.46 70.8202 228.488 70.8202 228.516 70.8202C228.544 70.8202 228.572 70.8202 228.601 70.8202C228.629 70.8202 228.657 70.8202 228.685 70.8202C228.713 70.8202 228.741 70.8202 228.77 70.8202C228.798 70.8202 228.826 70.8202 228.854 70.8202C228.882 70.8202 228.91 70.8202 228.939 70.8202C228.967 70.8202 228.995 70.8202 229.023 70.8202C229.051 70.8202 229.079 70.8202 229.108 70.8202C229.136 70.8202 229.164 70.8202 229.192 70.8202C229.22 70.8202 229.248 70.8202 229.277 70.8202C229.305 70.8202 229.333 70.8202 229.361 70.8202C229.389 70.8202 229.417 70.8202 229.446 70.8202C229.474 70.8202 229.502 70.8202 229.53 70.8202C229.558 70.8202 229.586 70.8202 229.615 70.8202C229.643 70.8202 229.671 70.8202 229.699 70.8202C229.727 70.8202 229.755 70.8202 229.784 70.8202C229.812 70.8202 229.84 70.8202 229.868 70.8202C229.896 70.8202 229.924 70.8202 229.953 70.8202C229.981 70.8202 230.009 70.8202 230.037 70.8202C230.065 70.8202 230.093 70.8202 230.122 70.8202C230.15 70.8202 230.178 70.8202 230.206 70.8202C230.234 70.8202 230.262 70.8202 230.29 70.8202C230.319 70.8202 230.347 70.8202 230.375 70.8202C230.403 70.8202 230.431 70.8202 230.459 70.8202C230.488 70.8202 230.516 70.8202 230.544 70.8202C230.572 70.8202 230.6 70.8202 230.628 70.8202C230.657 70.8202 230.685 70.8202 230.713 70.8202C230.741 70.8202 230.769 70.8202 230.797 70.8202C230.826 70.8202 230.854 70.8202 230.882 70.8202C230.91 70.8202 230.938 70.8202 230.966 70.8202C230.995 70.8202 231.023 70.8202 231.051 70.8202C231.079 70.8202 231.107 70.8202 231.135 70.8202C231.164 70.8202 231.192 70.8202 231.22 70.8202C231.248 70.8202 231.276 70.8202 231.304 70.8202C231.333 70.8202 231.361 70.8202 231.389 70.8202C231.417 70.8202 231.445 70.8202 231.473 70.8202C231.502 70.8202 231.53 70.8202 231.558 70.8202C231.586 70.8202 231.614 70.8202 231.642 70.8202C231.671 70.8202 231.699 70.8202 231.727 70.8202C231.755 70.8202 231.783 70.8202 231.811 70.8202C231.84 70.8202 231.868 70.8202 231.896 70.8202C231.924 70.8202 231.952 70.8202 231.98 70.8202C232.009 70.8202 232.037 70.8202 232.065 70.8202C232.093 70.8202 232.121 70.8202 232.149 70.8202C232.177 70.8202 232.206 70.8202 232.234 70.8202C232.262 70.8202 232.29 70.8202 232.318 70.8202C232.346 70.8202 232.375 70.8202 232.403 70.8202C232.431 70.8202 232.459 70.8202 232.487 70.8202C232.515 70.8202 232.544 70.8202 232.572 70.8202C232.6 70.8202 232.628 70.8202 232.656 70.8202C232.684 70.8202 232.713 70.8202 232.741 70.8202C232.769 70.8202 232.797 70.8202 232.825 70.8202C232.853 70.8202 232.882 70.8202 232.91 70.8202C232.938 70.8202 232.966 70.8202 232.994 70.8202C233.022 70.8202 233.051 70.8202 233.079 70.8202C233.107 70.8202 233.135 70.8202 233.163 70.8202C233.191 70.8202 233.22 70.8202 233.248 70.8202C233.276 70.8202 233.304 70.8202 233.332 70.8202C233.36 70.8202 233.389 70.8202 233.417 70.8202C233.445 70.8202 233.473 70.8202 233.501 70.8202C233.529 70.8202 233.558 70.8202 233.586 70.8202C233.614 70.8202 233.642 70.8202 233.67 70.8202C233.698 70.8202 233.727 70.8202 233.755 70.8202C233.783 70.8202 233.811 70.8202 233.839 70.8202C233.867 70.8202 233.896 70.8202 233.924 70.8202C233.952 70.8202 233.98 70.8202 234.008 70.8202C234.036 70.8202 234.064 70.8202 234.093 70.8202C234.121 70.8202 234.149 70.8202 234.177 70.8202C234.205 70.8202 234.233 70.8202 234.262 70.8202C234.29 70.8202 234.318 70.8202 234.346 70.8202C234.374 70.8202 234.402 70.8202 234.431 70.8202C234.459 70.8202 234.487 70.8202 234.515 70.8202C234.543 70.8202 234.571 70.8202 234.6 70.8202C234.628 70.8202 234.656 70.8202 234.684 70.8202C234.712 70.8202 234.74 70.8202 234.769 70.8202C234.797 70.8202 234.825 70.8202 234.853 70.8202C234.881 70.8202 234.909 70.8202 234.938 70.8202C234.966 70.8202 234.994 70.8202 235.022 70.8202C235.05 70.8202 235.078 70.8202 235.107 70.8202C235.135 70.8202 235.163 70.8202 235.191 70.8202C235.219 70.8202 235.247 70.8202 235.276 70.8202C235.304 70.8202 235.332 70.8202 235.36 70.8202C235.388 70.8202 235.416 70.8202 235.445 70.8202C235.473 70.8202 235.501 70.8202 235.529 70.8202C235.557 70.8202 235.585 70.8202 235.614 70.8202C235.642 70.8202 235.67 70.8202 235.698 70.8202C235.726 70.8202 235.754 70.8202 235.783 70.8202C235.811 70.8202 235.839 70.8202 235.867 70.8202C235.895 70.8202 235.923 70.8202 235.951 70.8202C235.98 70.8202 236.008 70.8202 236.036 70.8202C236.064 70.8202 236.092 70.8202 236.12 70.8202C236.149 70.8202 236.177 70.8202 236.205 70.8202C236.233 70.8202 236.261 70.8202 236.289 70.8202C236.318 70.8202 236.346 70.8202 236.374 70.8202C236.402 70.8202 236.43 70.8202 236.458 70.8202C236.487 70.8202 236.515 70.8202 236.543 70.8202C236.571 70.8202 236.599 70.8202 236.627 70.8202C236.656 70.8202 236.684 70.8202 236.712 70.8202C236.74 70.8202 236.768 70.8202 236.796 70.8202C236.825 70.8202 236.853 70.8202 236.881 70.8202C236.909 70.8202 236.937 70.8202 236.965 70.8202C236.994 70.8202 237.022 70.8202 237.05 70.8202C237.078 70.8202 237.106 70.8202 237.134 70.8202C237.163 70.8202 237.191 70.8202 237.219 70.8202C237.247 70.8202 237.275 70.8202 237.303 70.8202C237.332 70.8202 237.36 70.8202 237.388 70.8202C237.416 70.8202 237.444 70.8202 237.472 70.8202C237.501 70.8202 237.529 70.8202 237.557 70.8202C237.585 70.8202 237.613 70.8202 237.641 70.8202C237.67 70.8202 237.698 70.8202 237.726 70.8202C237.754 70.8202 237.782 70.8202 237.81 70.8202C237.838 70.8202 237.867 70.8202 237.895 70.8202C237.923 70.8202 237.951 70.8202 237.979 70.8202C238.007 70.8202 238.036 70.8202 238.064 70.8202C238.092 70.8202 238.12 70.8202 238.148 70.8202C238.176 70.8202 238.205 70.8202 238.233 70.8202C238.261 70.8202 238.289 70.8202 238.317 70.8202C238.345 70.8202 238.374 70.8202 238.402 70.8202C238.43 70.8202 238.458 70.8202 238.486 70.8202C238.514 70.8202 238.543 70.8202 238.571 70.8202C238.599 70.8202 238.627 70.8202 238.655 70.8202C238.683 70.8202 238.712 70.8202 238.74 70.8202C238.768 70.8202 238.796 70.8202 238.824 70.8202C238.852 70.8202 238.881 70.8202 238.909 70.8202C238.937 70.8202 238.965 70.8202 238.993 70.8202C239.021 70.8202 239.05 70.8202 239.078 70.8202C239.106 70.8202 239.134 70.8202 239.162 70.8202C239.19 70.8202 239.219 70.8202 239.247 70.8202C239.275 70.8202 239.303 70.8202 239.331 70.8202C239.359 70.8202 239.388 70.8202 239.416 70.8202C239.444 70.8202 239.472 70.8202 239.5 70.8202C239.528 70.8202 239.557 70.8202 239.585 70.8202C239.613 70.8202 239.641 70.8202 239.669 70.8202C239.697 70.8202 239.725 70.8202 239.754 70.8202C239.782 70.8202 239.81 70.8202 239.838 70.8202C239.866 70.8202 239.894 70.8202 239.923 70.8202C239.951 70.8202 239.979 70.8202 240.007 70.8202C240.035 70.8202 240.063 70.8202 240.092 70.8202C240.12 70.8202 240.148 70.8202 240.176 70.8202C240.204 70.8202 240.232 70.8202 240.261 70.8202C240.289 70.8202 240.317 70.8202 240.345 70.8202C240.373 70.8202 240.401 70.8202 240.43 70.8202C240.458 70.8202 240.486 70.8202 240.514 70.8202C240.542 70.8202 240.57 70.8202 240.599 70.8202C240.627 70.8202 240.655 70.8202 240.683 70.8202C240.711 70.8202 240.739 70.8202 240.768 70.8202C240.796 70.8202 240.824 70.8202 240.852 70.8202C240.88 70.8202 240.908 70.8202 240.937 70.8202C240.965 70.8202 240.993 70.8202 241.021 70.8202C241.049 70.8202 241.077 70.8202 241.106 70.8202C241.134 70.8202 241.162 70.8202 241.19 70.8202C241.218 70.8202 241.246 70.8202 241.275 70.8202C241.303 70.8202 241.331 70.8202 241.359 70.8202C241.387 70.8202 241.415 70.8202 241.443 70.8202C241.472 70.8202 241.5 70.8202 241.528 70.8202C241.556 70.8202 241.584 70.8202 241.612 70.8202C241.641 70.8202 241.669 70.8202 241.697 70.8202C241.725 70.8202 241.753 70.8202 241.781 70.8202C241.81 70.8202 241.838 70.8202 241.866 70.8202C241.894 70.8202 241.922 70.8202 241.95 70.8202C241.979 70.8202 242.007 70.8202 242.035 70.8202C242.063 70.8202 242.091 70.8202 242.119 70.8202C242.148 70.8202 242.176 70.8202 242.204 70.8202C242.232 70.8202 242.26 70.8202 242.288 70.8202C242.317 70.8202 242.345 70.8202 242.373 70.8202C242.401 70.8202 242.429 70.8202 242.457 70.8202C242.486 70.8202 242.514 70.8202 242.542 70.8202C242.57 70.8202 242.598 70.8202 242.626 70.8202C242.655 70.8202 242.683 70.8202 242.711 70.8202C242.739 70.8202 242.767 70.8202 242.795 70.8202C242.824 70.8202 242.852 70.8202 242.88 70.8202C242.908 70.8202 242.936 70.8202 242.964 70.8202C242.993 70.8202 243.021 70.8202 243.049 70.8202C243.077 70.8202 243.105 70.8202 243.133 70.8202C243.162 70.8202 243.19 70.8202 243.218 70.8202C243.246 70.8202 243.274 70.8202 243.302 70.8202C243.33 70.8202 243.359 70.8202 243.387 70.8202C243.415 70.8202 243.443 70.8202 243.471 70.8202C243.499 70.8202 243.528 70.8202 243.556 70.8202C243.584 70.8202 243.612 70.8202 243.64 70.8202C243.668 70.8202 243.697 70.8202 243.725 70.8202V75.8202C243.697 75.8202 243.668 75.8202 243.64 75.8202C243.612 75.8202 243.584 75.8202 243.556 75.8202C243.528 75.8202 243.499 75.8202 243.471 75.8202C243.443 75.8202 243.415 75.8202 243.387 75.8202C243.359 75.8202 243.33 75.8202 243.302 75.8202C243.274 75.8202 243.246 75.8202 243.218 75.8202C243.19 75.8202 243.162 75.8202 243.133 75.8202C243.105 75.8202 243.077 75.8202 243.049 75.8202C243.021 75.8202 242.993 75.8202 242.964 75.8202C242.936 75.8202 242.908 75.8202 242.88 75.8202C242.852 75.8202 242.824 75.8202 242.795 75.8202C242.767 75.8202 242.739 75.8202 242.711 75.8202C242.683 75.8202 242.655 75.8202 242.626 75.8202C242.598 75.8202 242.57 75.8202 242.542 75.8202C242.514 75.8202 242.486 75.8202 242.457 75.8202C242.429 75.8202 242.401 75.8202 242.373 75.8202C242.345 75.8202 242.317 75.8202 242.288 75.8202C242.26 75.8202 242.232 75.8202 242.204 75.8202C242.176 75.8202 242.148 75.8202 242.119 75.8202C242.091 75.8202 242.063 75.8202 242.035 75.8202C242.007 75.8202 241.979 75.8202 241.95 75.8202C241.922 75.8202 241.894 75.8202 241.866 75.8202C241.838 75.8202 241.81 75.8202 241.781 75.8202C241.753 75.8202 241.725 75.8202 241.697 75.8202C241.669 75.8202 241.641 75.8202 241.612 75.8202C241.584 75.8202 241.556 75.8202 241.528 75.8202C241.5 75.8202 241.472 75.8202 241.443 75.8202C241.415 75.8202 241.387 75.8202 241.359 75.8202C241.331 75.8202 241.303 75.8202 241.275 75.8202C241.246 75.8202 241.218 75.8202 241.19 75.8202C241.162 75.8202 241.134 75.8202 241.106 75.8202C241.077 75.8202 241.049 75.8202 241.021 75.8202C240.993 75.8202 240.965 75.8202 240.937 75.8202C240.908 75.8202 240.88 75.8202 240.852 75.8202C240.824 75.8202 240.796 75.8202 240.768 75.8202C240.739 75.8202 240.711 75.8202 240.683 75.8202C240.655 75.8202 240.627 75.8202 240.599 75.8202C240.57 75.8202 240.542 75.8202 240.514 75.8202C240.486 75.8202 240.458 75.8202 240.43 75.8202C240.401 75.8202 240.373 75.8202 240.345 75.8202C240.317 75.8202 240.289 75.8202 240.261 75.8202C240.232 75.8202 240.204 75.8202 240.176 75.8202C240.148 75.8202 240.12 75.8202 240.092 75.8202C240.063 75.8202 240.035 75.8202 240.007 75.8202C239.979 75.8202 239.951 75.8202 239.923 75.8202C239.894 75.8202 239.866 75.8202 239.838 75.8202C239.81 75.8202 239.782 75.8202 239.754 75.8202C239.725 75.8202 239.697 75.8202 239.669 75.8202C239.641 75.8202 239.613 75.8202 239.585 75.8202C239.557 75.8202 239.528 75.8202 239.5 75.8202C239.472 75.8202 239.444 75.8202 239.416 75.8202C239.388 75.8202 239.359 75.8202 239.331 75.8202C239.303 75.8202 239.275 75.8202 239.247 75.8202C239.219 75.8202 239.19 75.8202 239.162 75.8202C239.134 75.8202 239.106 75.8202 239.078 75.8202C239.05 75.8202 239.021 75.8202 238.993 75.8202C238.965 75.8202 238.937 75.8202 238.909 75.8202C238.881 75.8202 238.852 75.8202 238.824 75.8202C238.796 75.8202 238.768 75.8202 238.74 75.8202C238.712 75.8202 238.683 75.8202 238.655 75.8202C238.627 75.8202 238.599 75.8202 238.571 75.8202C238.543 75.8202 238.514 75.8202 238.486 75.8202C238.458 75.8202 238.43 75.8202 238.402 75.8202C238.374 75.8202 238.345 75.8202 238.317 75.8202C238.289 75.8202 238.261 75.8202 238.233 75.8202C238.205 75.8202 238.176 75.8202 238.148 75.8202C238.12 75.8202 238.092 75.8202 238.064 75.8202C238.036 75.8202 238.007 75.8202 237.979 75.8202C237.951 75.8202 237.923 75.8202 237.895 75.8202C237.867 75.8202 237.838 75.8202 237.81 75.8202C237.782 75.8202 237.754 75.8202 237.726 75.8202C237.698 75.8202 237.67 75.8202 237.641 75.8202C237.613 75.8202 237.585 75.8202 237.557 75.8202C237.529 75.8202 237.501 75.8202 237.472 75.8202C237.444 75.8202 237.416 75.8202 237.388 75.8202C237.36 75.8202 237.332 75.8202 237.303 75.8202C237.275 75.8202 237.247 75.8202 237.219 75.8202C237.191 75.8202 237.163 75.8202 237.134 75.8202C237.106 75.8202 237.078 75.8202 237.05 75.8202C237.022 75.8202 236.994 75.8202 236.965 75.8202C236.937 75.8202 236.909 75.8202 236.881 75.8202C236.853 75.8202 236.825 75.8202 236.796 75.8202C236.768 75.8202 236.74 75.8202 236.712 75.8202C236.684 75.8202 236.656 75.8202 236.627 75.8202C236.599 75.8202 236.571 75.8202 236.543 75.8202C236.515 75.8202 236.487 75.8202 236.458 75.8202C236.43 75.8202 236.402 75.8202 236.374 75.8202C236.346 75.8202 236.318 75.8202 236.289 75.8202C236.261 75.8202 236.233 75.8202 236.205 75.8202C236.177 75.8202 236.149 75.8202 236.12 75.8202C236.092 75.8202 236.064 75.8202 236.036 75.8202C236.008 75.8202 235.98 75.8202 235.951 75.8202C235.923 75.8202 235.895 75.8202 235.867 75.8202C235.839 75.8202 235.811 75.8202 235.783 75.8202C235.754 75.8202 235.726 75.8202 235.698 75.8202C235.67 75.8202 235.642 75.8202 235.614 75.8202C235.585 75.8202 235.557 75.8202 235.529 75.8202C235.501 75.8202 235.473 75.8202 235.445 75.8202C235.416 75.8202 235.388 75.8202 235.36 75.8202C235.332 75.8202 235.304 75.8202 235.276 75.8202C235.247 75.8202 235.219 75.8202 235.191 75.8202C235.163 75.8202 235.135 75.8202 235.107 75.8202C235.078 75.8202 235.05 75.8202 235.022 75.8202C234.994 75.8202 234.966 75.8202 234.938 75.8202C234.909 75.8202 234.881 75.8202 234.853 75.8202C234.825 75.8202 234.797 75.8202 234.769 75.8202C234.74 75.8202 234.712 75.8202 234.684 75.8202C234.656 75.8202 234.628 75.8202 234.6 75.8202C234.571 75.8202 234.543 75.8202 234.515 75.8202C234.487 75.8202 234.459 75.8202 234.431 75.8202C234.402 75.8202 234.374 75.8202 234.346 75.8202C234.318 75.8202 234.29 75.8202 234.262 75.8202C234.233 75.8202 234.205 75.8202 234.177 75.8202C234.149 75.8202 234.121 75.8202 234.093 75.8202C234.064 75.8202 234.036 75.8202 234.008 75.8202C233.98 75.8202 233.952 75.8202 233.924 75.8202C233.896 75.8202 233.867 75.8202 233.839 75.8202C233.811 75.8202 233.783 75.8202 233.755 75.8202C233.727 75.8202 233.698 75.8202 233.67 75.8202C233.642 75.8202 233.614 75.8202 233.586 75.8202C233.558 75.8202 233.529 75.8202 233.501 75.8202C233.473 75.8202 233.445 75.8202 233.417 75.8202C233.389 75.8202 233.36 75.8202 233.332 75.8202C233.304 75.8202 233.276 75.8202 233.248 75.8202C233.22 75.8202 233.191 75.8202 233.163 75.8202C233.135 75.8202 233.107 75.8202 233.079 75.8202C233.051 75.8202 233.022 75.8202 232.994 75.8202C232.966 75.8202 232.938 75.8202 232.91 75.8202C232.882 75.8202 232.853 75.8202 232.825 75.8202C232.797 75.8202 232.769 75.8202 232.741 75.8202C232.713 75.8202 232.684 75.8202 232.656 75.8202C232.628 75.8202 232.6 75.8202 232.572 75.8202C232.544 75.8202 232.515 75.8202 232.487 75.8202C232.459 75.8202 232.431 75.8202 232.403 75.8202C232.375 75.8202 232.346 75.8202 232.318 75.8202C232.29 75.8202 232.262 75.8202 232.234 75.8202C232.206 75.8202 232.177 75.8202 232.149 75.8202C232.121 75.8202 232.093 75.8202 232.065 75.8202C232.037 75.8202 232.009 75.8202 231.98 75.8202C231.952 75.8202 231.924 75.8202 231.896 75.8202C231.868 75.8202 231.84 75.8202 231.811 75.8202C231.783 75.8202 231.755 75.8202 231.727 75.8202C231.699 75.8202 231.671 75.8202 231.642 75.8202C231.614 75.8202 231.586 75.8202 231.558 75.8202C231.53 75.8202 231.502 75.8202 231.473 75.8202C231.445 75.8202 231.417 75.8202 231.389 75.8202C231.361 75.8202 231.333 75.8202 231.304 75.8202C231.276 75.8202 231.248 75.8202 231.22 75.8202C231.192 75.8202 231.164 75.8202 231.135 75.8202C231.107 75.8202 231.079 75.8202 231.051 75.8202C231.023 75.8202 230.995 75.8202 230.966 75.8202C230.938 75.8202 230.91 75.8202 230.882 75.8202C230.854 75.8202 230.826 75.8202 230.797 75.8202C230.769 75.8202 230.741 75.8202 230.713 75.8202C230.685 75.8202 230.657 75.8202 230.628 75.8202C230.6 75.8202 230.572 75.8202 230.544 75.8202C230.516 75.8202 230.488 75.8202 230.459 75.8202C230.431 75.8202 230.403 75.8202 230.375 75.8202C230.347 75.8202 230.319 75.8202 230.29 75.8202C230.262 75.8202 230.234 75.8202 230.206 75.8202C230.178 75.8202 230.15 75.8202 230.122 75.8202C230.093 75.8202 230.065 75.8202 230.037 75.8202C230.009 75.8202 229.981 75.8202 229.953 75.8202C229.924 75.8202 229.896 75.8202 229.868 75.8202C229.84 75.8202 229.812 75.8202 229.784 75.8202C229.755 75.8202 229.727 75.8202 229.699 75.8202C229.671 75.8202 229.643 75.8202 229.615 75.8202C229.586 75.8202 229.558 75.8202 229.53 75.8202C229.502 75.8202 229.474 75.8202 229.446 75.8202C229.417 75.8202 229.389 75.8202 229.361 75.8202C229.333 75.8202 229.305 75.8202 229.277 75.8202C229.248 75.8202 229.22 75.8202 229.192 75.8202C229.164 75.8202 229.136 75.8202 229.108 75.8202C229.079 75.8202 229.051 75.8202 229.023 75.8202C228.995 75.8202 228.967 75.8202 228.939 75.8202C228.91 75.8202 228.882 75.8202 228.854 75.8202C228.826 75.8202 228.798 75.8202 228.77 75.8202C228.741 75.8202 228.713 75.8202 228.685 75.8202C228.657 75.8202 228.629 75.8202 228.601 75.8202C228.572 75.8202 228.544 75.8202 228.516 75.8202C228.488 75.8202 228.46 75.8202 228.432 75.8202C228.403 75.8202 228.375 75.8202 228.347 75.8202C228.319 75.8202 228.291 75.8202 228.263 75.8202C228.235 75.8202 228.206 75.8202 228.178 75.8202C228.15 75.8202 228.122 75.8202 228.094 75.8202C228.066 75.8202 228.037 75.8202 228.009 75.8202C227.981 75.8202 227.953 75.8202 227.925 75.8202C227.897 75.8202 227.868 75.8202 227.84 75.8202C227.812 75.8202 227.784 75.8202 227.756 75.8202C227.728 75.8202 227.699 75.8202 227.671 75.8202C227.643 75.8202 227.615 75.8202 227.587 75.8202C227.559 75.8202 227.53 75.8202 227.502 75.8202C227.474 75.8202 227.446 75.8202 227.418 75.8202C227.39 75.8202 227.361 75.8202 227.333 75.8202C227.305 75.8202 227.277 75.8202 227.249 75.8202C227.221 75.8202 227.192 75.8202 227.164 75.8202C227.136 75.8202 227.108 75.8202 227.08 75.8202C227.052 75.8202 227.023 75.8202 226.995 75.8202C226.967 75.8202 226.939 75.8202 226.911 75.8202C226.883 75.8202 226.854 75.8202 226.826 75.8202C226.798 75.8202 226.77 75.8202 226.742 75.8202C226.714 75.8202 226.685 75.8202 226.657 75.8202C226.629 75.8202 226.601 75.8202 226.573 75.8202C226.545 75.8202 226.517 75.8202 226.488 75.8202C226.46 75.8202 226.432 75.8202 226.404 75.8202C226.376 75.8202 226.348 75.8202 226.319 75.8202C226.291 75.8202 226.263 75.8202 226.235 75.8202C226.207 75.8202 226.179 75.8202 226.15 75.8202C226.122 75.8202 226.094 75.8202 226.066 75.8202C226.038 75.8202 226.01 75.8202 225.981 75.8202C225.953 75.8202 225.925 75.8202 225.897 75.8202C225.869 75.8202 225.841 75.8202 225.812 75.8202C225.784 75.8202 225.756 75.8202 225.728 75.8202C225.7 75.8202 225.672 75.8202 225.643 75.8202C225.615 75.8202 225.587 75.8202 225.559 75.8202C225.531 75.8202 225.503 75.8202 225.474 75.8202C225.446 75.8202 225.418 75.8202 225.39 75.8202C225.362 75.8202 225.334 75.8202 225.305 75.8202C225.277 75.8202 225.249 75.8202 225.221 75.8202C225.193 75.8202 225.165 75.8202 225.136 75.8202C225.108 75.8202 225.08 75.8202 225.052 75.8202C225.024 75.8202 224.996 75.8202 224.967 75.8202C224.939 75.8202 224.911 75.8202 224.883 75.8202C224.855 75.8202 224.827 75.8202 224.798 75.8202C224.77 75.8202 224.742 75.8202 224.714 75.8202C224.686 75.8202 224.658 75.8202 224.63 75.8202C224.601 75.8202 224.573 75.8202 224.545 75.8202C224.517 75.8202 224.489 75.8202 224.461 75.8202C224.432 75.8202 224.404 75.8202 224.376 75.8202C224.348 75.8202 224.32 75.8202 224.292 75.8202C224.263 75.8202 224.235 75.8202 224.207 75.8202C224.179 75.8202 224.151 75.8202 224.123 75.8202C224.094 75.8202 224.066 75.8202 224.038 75.8202C224.01 75.8202 223.982 75.8202 223.954 75.8202C223.925 75.8202 223.897 75.8202 223.869 75.8202C223.841 75.8202 223.813 75.8202 223.785 75.8202C223.756 75.8202 223.728 75.8202 223.7 75.8202C223.672 75.8202 223.644 75.8202 223.616 75.8202C223.587 75.8202 223.559 75.8202 223.531 75.8202C223.503 75.8202 223.475 75.8202 223.447 75.8202C223.418 75.8202 223.39 75.8202 223.362 75.8202C223.334 75.8202 223.306 75.8202 223.278 75.8202C223.249 75.8202 223.221 75.8202 223.193 75.8202C223.165 75.8202 223.137 75.8202 223.109 75.8202C223.08 75.8202 223.052 75.8202 223.024 75.8202C222.996 75.8202 222.968 75.8202 222.94 75.8202C222.911 75.8202 222.883 75.8202 222.855 75.8202C222.827 75.8202 222.799 75.8202 222.771 75.8202C222.743 75.8202 222.714 75.8202 222.686 75.8202C222.658 75.8202 222.63 75.8202 222.602 75.8202C222.574 75.8202 222.545 75.8202 222.517 75.8202C222.489 75.8202 222.461 75.8202 222.433 75.8202C222.405 75.8202 222.376 75.8202 222.348 75.8202C222.32 75.8202 222.292 75.8202 222.264 75.8202C222.236 75.8202 222.207 75.8202 222.179 75.8202C222.151 75.8202 222.123 75.8202 222.095 75.8202C222.067 75.8202 222.038 75.8202 222.01 75.8202C221.982 75.8202 221.954 75.8202 221.926 75.8202C221.898 75.8202 221.869 75.8202 221.841 75.8202C221.813 75.8202 221.785 75.8202 221.757 75.8202C221.729 75.8202 221.7 75.8202 221.672 75.8202C221.644 75.8202 221.616 75.8202 221.588 75.8202C221.56 75.8202 221.531 75.8202 221.503 75.8202C221.475 75.8202 221.447 75.8202 221.419 75.8202C221.391 75.8202 221.362 75.8202 221.334 75.8202C221.306 75.8202 221.278 75.8202 221.25 75.8202C221.222 75.8202 221.193 75.8202 221.165 75.8202C221.137 75.8202 221.109 75.8202 221.081 75.8202C221.053 75.8202 221.024 75.8202 220.996 75.8202C220.968 75.8202 220.94 75.8202 220.912 75.8202C220.884 75.8202 220.856 75.8202 220.827 75.8202C220.799 75.8202 220.771 75.8202 220.743 75.8202C220.715 75.8202 220.687 75.8202 220.658 75.8202C220.63 75.8202 220.602 75.8202 220.574 75.8202C220.546 75.8202 220.518 75.8202 220.489 75.8202C220.461 75.8202 220.433 75.8202 220.405 75.8202C220.377 75.8202 220.349 75.8202 220.32 75.8202C220.292 75.8202 220.264 75.8202 220.236 75.8202C220.208 75.8202 220.18 75.8202 220.151 75.8202C220.123 75.8202 220.095 75.8202 220.067 75.8202C220.039 75.8202 220.011 75.8202 219.982 75.8202C219.954 75.8202 219.926 75.8202 219.898 75.8202C219.87 75.8202 219.842 75.8202 219.813 75.8202C219.785 75.8202 219.757 75.8202 219.729 75.8202C219.701 75.8202 219.673 75.8202 219.644 75.8202C219.616 75.8202 219.588 75.8202 219.56 75.8202C219.532 75.8202 219.504 75.8202 219.475 75.8202C219.447 75.8202 219.419 75.8202 219.391 75.8202C219.363 75.8202 219.335 75.8202 219.306 75.8202C219.278 75.8202 219.25 75.8202 219.222 75.8202C219.194 75.8202 219.166 75.8202 219.137 75.8202C219.109 75.8202 219.081 75.8202 219.053 75.8202C219.025 75.8202 218.997 75.8202 218.969 75.8202C218.94 75.8202 218.912 75.8202 218.884 75.8202C218.856 75.8202 218.828 75.8202 218.8 75.8202C218.771 75.8202 218.743 75.8202 218.715 75.8202C218.687 75.8202 218.659 75.8202 218.631 75.8202C218.602 75.8202 218.574 75.8202 218.546 75.8202C218.518 75.8202 218.49 75.8202 218.462 75.8202C218.433 75.8202 218.405 75.8202 218.377 75.8202C218.349 75.8202 218.321 75.8202 218.293 75.8202C218.264 75.8202 218.236 75.8202 218.208 75.8202C218.18 75.8202 218.152 75.8202 218.124 75.8202C218.095 75.8202 218.067 75.8202 218.039 75.8202C218.011 75.8202 217.983 75.8202 217.955 75.8202C217.926 75.8202 217.898 75.8202 217.87 75.8202C217.842 75.8202 217.814 75.8202 217.786 75.8202C217.757 75.8202 217.729 75.8202 217.701 75.8202C217.673 75.8202 217.645 75.8202 217.617 75.8202C217.588 75.8202 217.56 75.8202 217.532 75.8202C217.504 75.8202 217.476 75.8202 217.448 75.8202C217.419 75.8202 217.391 75.8202 217.363 75.8202C217.335 75.8202 217.307 75.8202 217.279 75.8202C217.25 75.8202 217.222 75.8202 217.194 75.8202C217.166 75.8202 217.138 75.8202 217.11 75.8202C217.082 75.8202 217.053 75.8202 217.025 75.8202C216.997 75.8202 216.969 75.8202 216.941 75.8202C216.913 75.8202 216.884 75.8202 216.856 75.8202C216.828 75.8202 216.8 75.8202 216.772 75.8202C216.744 75.8202 216.715 75.8202 216.687 75.8202C216.659 75.8202 216.631 75.8202 216.603 75.8202C216.575 75.8202 216.546 75.8202 216.518 75.8202C216.49 75.8202 216.462 75.8202 216.434 75.8202C216.406 75.8202 216.377 75.8202 216.349 75.8202C216.321 75.8202 216.293 75.8202 216.265 75.8202C216.237 75.8202 216.208 75.8202 216.18 75.8202C216.152 75.8202 216.124 75.8202 216.096 75.8202C216.068 75.8202 216.039 75.8202 216.011 75.8202C215.983 75.8202 215.955 75.8202 215.927 75.8202C215.899 75.8202 215.87 75.8202 215.842 75.8202C215.814 75.8202 215.786 75.8202 215.758 75.8202C215.73 75.8202 215.701 75.8202 215.673 75.8202C215.645 75.8202 215.617 75.8202 215.589 75.8202C215.561 75.8202 215.532 75.8202 215.504 75.8202C215.476 75.8202 215.448 75.8202 215.42 75.8202C215.392 75.8202 215.364 75.8202 215.335 75.8202C215.307 75.8202 215.279 75.8202 215.251 75.8202C215.223 75.8202 215.195 75.8202 215.166 75.8202C215.138 75.8202 215.11 75.8202 215.082 75.8202C215.054 75.8202 215.026 75.8202 214.997 75.8202C214.969 75.8202 214.941 75.8202 214.913 75.8202C214.885 75.8202 214.857 75.8202 214.828 75.8202C214.8 75.8202 214.772 75.8202 214.744 75.8202C214.716 75.8202 214.688 75.8202 214.659 75.8202C214.631 75.8202 214.603 75.8202 214.575 75.8202C214.547 75.8202 214.519 75.8202 214.49 75.8202C214.462 75.8202 214.434 75.8202 214.406 75.8202C214.378 75.8202 214.35 75.8202 214.321 75.8202C214.293 75.8202 214.265 75.8202 214.237 75.8202C214.209 75.8202 214.181 75.8202 214.152 75.8202C214.124 75.8202 214.096 75.8202 214.068 75.8202C214.04 75.8202 214.012 75.8202 213.983 75.8202C213.955 75.8202 213.927 75.8202 213.899 75.8202C213.871 75.8202 213.843 75.8202 213.814 75.8202C213.786 75.8202 213.758 75.8202 213.73 75.8202C213.702 75.8202 213.674 75.8202 213.645 75.8202C213.617 75.8202 213.589 75.8202 213.561 75.8202C213.533 75.8202 213.505 75.8202 213.477 75.8202C213.448 75.8202 213.42 75.8202 213.392 75.8202C213.364 75.8202 213.336 75.8202 213.308 75.8202C213.279 75.8202 213.251 75.8202 213.223 75.8202C213.195 75.8202 213.167 75.8202 213.139 75.8202C213.11 75.8202 213.082 75.8202 213.054 75.8202C213.026 75.8202 212.998 75.8202 212.97 75.8202C212.941 75.8202 212.913 75.8202 212.885 75.8202C212.857 75.8202 212.829 75.8202 212.801 75.8202C212.772 75.8202 212.744 75.8202 212.716 75.8202C212.688 75.8202 212.66 75.8202 212.632 75.8202C212.603 75.8202 212.575 75.8202 212.547 75.8202C212.519 75.8202 212.491 75.8202 212.463 75.8202C212.434 75.8202 212.406 75.8202 212.378 75.8202C212.35 75.8202 212.322 75.8202 212.294 75.8202C212.265 75.8202 212.237 75.8202 212.209 75.8202C212.181 75.8202 212.153 75.8202 212.125 75.8202C212.096 75.8202 212.068 75.8202 212.04 75.8202C212.012 75.8202 211.984 75.8202 211.956 75.8202C211.927 75.8202 211.899 75.8202 211.871 75.8202C211.843 75.8202 211.815 75.8202 211.787 75.8202C211.758 75.8202 211.73 75.8202 211.702 75.8202C211.674 75.8202 211.646 75.8202 211.618 75.8202C211.59 75.8202 211.561 75.8202 211.533 75.8202C211.505 75.8202 211.477 75.8202 211.449 75.8202C211.421 75.8202 211.392 75.8202 211.364 75.8202C211.336 75.8202 211.308 75.8202 211.28 75.8202C211.252 75.8202 211.223 75.8202 211.195 75.8202C211.167 75.8202 211.139 75.8202 211.111 75.8202C211.083 75.8202 211.054 75.8202 211.026 75.8202C210.998 75.8202 210.97 75.8202 210.942 75.8202C210.914 75.8202 210.885 75.8202 210.857 75.8202C210.829 75.8202 210.801 75.8202 210.773 75.8202C210.745 75.8202 210.716 75.8202 210.688 75.8202C210.66 75.8202 210.632 75.8202 210.604 75.8202C210.576 75.8202 210.547 75.8202 210.519 75.8202C210.491 75.8202 210.463 75.8202 210.435 75.8202C210.407 75.8202 210.378 75.8202 210.35 75.8202C210.322 75.8202 210.294 75.8202 210.266 75.8202C210.238 75.8202 210.209 75.8202 210.181 75.8202C210.153 75.8202 210.125 75.8202 210.097 75.8202C210.069 75.8202 210.04 75.8202 210.012 75.8202C209.984 75.8202 209.956 75.8202 209.928 75.8202C209.9 75.8202 209.871 75.8202 209.843 75.8202C209.815 75.8202 209.787 75.8202 209.759 75.8202C209.731 75.8202 209.703 75.8202 209.674 75.8202C209.646 75.8202 209.618 75.8202 209.59 75.8202C209.562 75.8202 209.534 75.8202 209.505 75.8202C209.477 75.8202 209.449 75.8202 209.421 75.8202C209.393 75.8202 209.365 75.8202 209.336 75.8202C209.308 75.8202 209.28 75.8202 209.252 75.8202C209.224 75.8202 209.196 75.8202 209.167 75.8202C209.139 75.8202 209.111 75.8202 209.083 75.8202C209.055 75.8202 209.027 75.8202 208.998 75.8202C208.97 75.8202 208.942 75.8202 208.914 75.8202C208.886 75.8202 208.858 75.8202 208.829 75.8202C208.801 75.8202 208.773 75.8202 208.745 75.8202C208.717 75.8202 208.689 75.8202 208.66 75.8202C208.632 75.8202 208.604 75.8202 208.576 75.8202C208.548 75.8202 208.52 75.8202 208.491 75.8202C208.463 75.8202 208.435 75.8202 208.407 75.8202C208.379 75.8202 208.351 75.8202 208.322 75.8202C208.294 75.8202 208.266 75.8202 208.238 75.8202C208.21 75.8202 208.182 75.8202 208.153 75.8202C208.125 75.8202 208.097 75.8202 208.069 75.8202C208.041 75.8202 208.013 75.8202 207.984 75.8202C207.956 75.8202 207.928 75.8202 207.9 75.8202C207.872 75.8202 207.844 75.8202 207.816 75.8202C207.787 75.8202 207.759 75.8202 207.731 75.8202C207.703 75.8202 207.675 75.8202 207.647 75.8202C207.618 75.8202 207.59 75.8202 207.562 75.8202C207.534 75.8202 207.506 75.8202 207.478 75.8202C207.449 75.8202 207.421 75.8202 207.393 75.8202C207.365 75.8202 207.337 75.8202 207.309 75.8202C207.28 75.8202 207.252 75.8202 207.224 75.8202C207.196 75.8202 207.168 75.8202 207.14 75.8202C207.111 75.8202 207.083 75.8202 207.055 75.8202C207.027 75.8202 206.999 75.8202 206.971 75.8202C206.942 75.8202 206.914 75.8202 206.886 75.8202C206.858 75.8202 206.83 75.8202 206.802 75.8202C206.773 75.8202 206.745 75.8202 206.717 75.8202C206.689 75.8202 206.661 75.8202 206.633 75.8202C206.604 75.8202 206.576 75.8202 206.548 75.8202C206.52 75.8202 206.492 75.8202 206.464 75.8202C206.435 75.8202 206.407 75.8202 206.379 75.8202C206.351 75.8202 206.323 75.8202 206.295 75.8202C206.266 75.8202 206.238 75.8202 206.21 75.8202C206.182 75.8202 206.154 75.8202 206.126 75.8202C206.097 75.8202 206.069 75.8202 206.041 75.8202C206.013 75.8202 205.985 75.8202 205.957 75.8202C205.929 75.8202 205.9 75.8202 205.872 75.8202C205.844 75.8202 205.816 75.8202 205.788 75.8202C205.76 75.8202 205.731 75.8202 205.703 75.8202C205.675 75.8202 205.647 75.8202 205.619 75.8202C205.591 75.8202 205.562 75.8202 205.534 75.8202C205.506 75.8202 205.478 75.8202 205.45 75.8202C205.422 75.8202 205.393 75.8202 205.365 75.8202C205.337 75.8202 205.309 75.8202 205.281 75.8202C205.253 75.8202 205.224 75.8202 205.196 75.8202C205.168 75.8202 205.14 75.8202 205.112 75.8202C205.084 75.8202 205.055 75.8202 205.027 75.8202C204.999 75.8202 204.971 75.8202 204.943 75.8202C204.915 75.8202 204.886 75.8202 204.858 75.8202C204.83 75.8202 204.802 75.8202 204.774 75.8202C204.746 75.8202 204.717 75.8202 204.689 75.8202C204.661 75.8202 204.633 75.8202 204.605 75.8202C204.577 75.8202 204.548 75.8202 204.52 75.8202C204.492 75.8202 204.464 75.8202 204.436 75.8202C204.408 75.8202 204.379 75.8202 204.351 75.8202C204.323 75.8202 204.295 75.8202 204.267 75.8202C204.239 75.8202 204.211 75.8202 204.182 75.8202C204.154 75.8202 204.126 75.8202 204.098 75.8202C204.07 75.8202 204.042 75.8202 204.013 75.8202C203.985 75.8202 203.957 75.8202 203.929 75.8202C203.901 75.8202 203.873 75.8202 203.844 75.8202C203.816 75.8202 203.788 75.8202 203.76 75.8202C203.732 75.8202 203.704 75.8202 203.675 75.8202C203.647 75.8202 203.619 75.8202 203.591 75.8202C203.563 75.8202 203.535 75.8202 203.506 75.8202C203.478 75.8202 203.45 75.8202 203.422 75.8202C203.394 75.8202 203.366 75.8202 203.337 75.8202C203.309 75.8202 203.281 75.8202 203.253 75.8202C203.225 75.8202 203.197 75.8202 203.168 75.8202C203.14 75.8202 203.112 75.8202 203.084 75.8202C203.056 75.8202 203.028 75.8202 202.999 75.8202C202.971 75.8202 202.943 75.8202 202.915 75.8202C202.887 75.8202 202.859 75.8202 202.83 75.8202C202.802 75.8202 202.774 75.8202 202.746 75.8202C202.718 75.8202 202.69 75.8202 202.661 75.8202C202.633 75.8202 202.605 75.8202 202.577 75.8202C202.549 75.8202 202.521 75.8202 202.492 75.8202C202.464 75.8202 202.436 75.8202 202.408 75.8202C202.38 75.8202 202.352 75.8202 202.324 75.8202C202.295 75.8202 202.267 75.8202 202.239 75.8202C202.211 75.8202 202.183 75.8202 202.155 75.8202C202.126 75.8202 202.098 75.8202 202.07 75.8202C202.042 75.8202 202.014 75.8202 201.986 75.8202C201.957 75.8202 201.929 75.8202 201.901 75.8202C201.873 75.8202 201.845 75.8202 201.817 75.8202C201.788 75.8202 201.76 75.8202 201.732 75.8202C201.704 75.8202 201.676 75.8202 201.648 75.8202C201.619 75.8202 201.591 75.8202 201.563 75.8202C201.535 75.8202 201.507 75.8202 201.479 75.8202C201.45 75.8202 201.422 75.8202 201.394 75.8202C201.366 75.8202 201.338 75.8202 201.31 75.8202C201.281 75.8202 201.253 75.8202 201.225 75.8202C201.197 75.8202 201.169 75.8202 201.141 75.8202C201.112 75.8202 201.084 75.8202 201.056 75.8202C201.028 75.8202 201 75.8202 200.972 75.8202C200.943 75.8202 200.915 75.8202 200.887 75.8202C200.859 75.8202 200.831 75.8202 200.803 75.8202C200.774 75.8202 200.746 75.8202 200.718 75.8202C200.69 75.8202 200.662 75.8202 200.634 75.8202C200.605 75.8202 200.577 75.8202 200.549 75.8202C200.521 75.8202 200.493 75.8202 200.465 75.8202V70.8202ZM243.725 70.8202C247.405 70.8202 251.95 70.8202 256.496 70.8202C261.041 70.8202 265.587 70.8202 269.267 70.8202V75.8202C265.587 75.8202 261.041 75.8202 256.496 75.8202C251.95 75.8202 247.405 75.8202 243.725 75.8202V70.8202Z" fill="#1844F5"/>
</g>
<defs>
<clipPath id="clip0_9248_2215">
<rect width="380" height="110" fill="white"/>
</clipPath>
</defs>
</svg>
