<svg width="380" height="150" viewBox="0 0 380 150" fill="none" xmlns="http://www.w3.org/2000/svg">
<path d="M71.6911 147L141.381 106.929V66.5083L106.536 46.6467L36.8462 86.7184V127.139L71.6911 147Z" fill="white"/>
<path d="M141.707 105.852L141.485 65.7446L72.195 105.749L72.3003 145.924L141.707 105.852Z" fill="#8590FF"/>
<path d="M71.6911 147L141.381 106.929V66.5083L106.536 46.6467L36.8462 86.7184V127.139L71.6911 147Z" stroke="#1844F5" stroke-width="4" stroke-linejoin="round"/>
<path d="M141.381 66.5085L71.6911 106.58L36.8462 86.7186" stroke="#1844F5" stroke-width="4"/>
<path d="M71.6904 106.579V146.999" stroke="#1844F5" stroke-width="4"/>
<path d="M141.738 66.5075L106.893 46.6459L120.506 26.8444L155.351 46.6459L141.738 66.5075Z" fill="#976CF0" stroke="#1844F5" stroke-width="4" stroke-linejoin="round"/>
<path d="M45.7349 80.4733C45.7351 84.1647 49.4067 87.8561 56.7498 89.9484C60.2684 90.9143 63.9025 91.3945 67.5512 91.3757C71.2027 91.3945 74.8397 90.9143 78.3613 89.9484C85.7 87.8561 89.3694 84.1647 89.3696 80.4733V12.9026C89.3698 9.21107 85.7004 5.51946 78.3613 3.42698C71.2831 1.52401 63.828 1.52401 56.7498 3.42698C49.4063 5.51946 45.7347 9.21107 45.7349 12.9026V80.4733Z" fill="#EEFDD9"/>
<path d="M69.91 26.1636C73.5616 26.1825 77.1986 25.7023 80.7202 24.7364C95.398 20.5515 95.398 9.97047 80.7202 5.78562C73.642 3.88266 66.1869 3.88266 59.1087 5.78562C44.4221 9.97047 44.4221 20.5515 59.1087 24.7364C62.6273 25.7022 66.2614 26.1824 69.91 26.1636Z" fill="#C6F980"/>
<path d="M67.5512 23.805C71.2027 23.8238 74.8397 23.3436 78.3613 22.3777C93.0391 18.1929 93.0391 7.61183 78.3613 3.42698C71.2831 1.52401 63.828 1.52401 56.7498 3.42698C42.0632 7.61183 42.0632 18.1929 56.7498 22.3777C60.2684 23.3436 63.9025 23.8238 67.5512 23.805" stroke="#E76BEC" stroke-width="4" stroke-miterlimit="10"/>
<path d="M45.7349 80.4733C45.7351 84.1647 49.4067 87.8561 56.7498 89.9484C60.2684 90.9143 63.9025 91.3945 67.5512 91.3757C71.2027 91.3945 74.8397 90.9143 78.3613 89.9484C85.7 87.8561 89.3694 84.1647 89.3696 80.4733V12.9026C89.3698 9.21107 85.7004 5.51946 78.3613 3.42698C71.2831 1.52401 63.828 1.52401 56.7498 3.42698C49.4063 5.51946 45.7347 9.21107 45.7349 12.9026V80.4733Z" stroke="#E76BEC" stroke-width="4" stroke-miterlimit="10"/>
<path d="M66.9878 35.1033C66.1625 36.0209 64.6602 38.4365 64.3568 41.5587" stroke="black" stroke-width="3"/>
<path d="M51.4478 35.0864C52.3417 35.9373 54.0267 38.2292 54.5713 41.3185" stroke="black" stroke-width="3"/>
<path d="M36.8449 105.209L2.00003 85.3478L36.8449 86.7779L71.6898 106.579L36.8449 105.209Z" fill="#976CF0" stroke="#1844F5" stroke-width="4" stroke-linejoin="round"/>
<path d="M109.151 117.723V94.0378M109.151 94.0378L100.7 110.514M109.151 94.0378L118.501 99.7751" stroke="#1844F5" stroke-width="3" stroke-linecap="round" stroke-linejoin="round"/>
<path d="M224.557 130.806L196.938 146.548V91.5778L204.395 87.1667L224.557 130.806Z" fill="#F94559"/>
<path d="M196.661 147L169.042 131.257L189.757 87.618L196.661 83.4751L204.119 87.618L224.281 131.257L196.661 147Z" stroke="#1844F5" stroke-width="4"/>
<path d="M204.119 87.618L196.661 92.0371L189.757 87.618" stroke="#1844F5" stroke-width="4"/>
<path d="M196.661 92.0371V146.723" stroke="#1844F5" stroke-width="4"/>
<path d="M263.978 55.4455L227.557 34.6864L282.552 3L300.398 34.6864L263.978 55.4455Z" fill="white"/>
<path d="M246.307 23.9861L282.512 3.41211L300.28 34.6866L264.476 54.58L246.307 23.9861Z" fill="#E76BEC"/>
<path d="M263.978 55.4455L227.557 34.6864L282.552 3L300.398 34.6864L263.978 55.4455Z" stroke="#1844F5" stroke-width="4" stroke-linejoin="round"/>
<path d="M263.978 55.4455L255.055 39.7721L246.131 24.0986" stroke="#1844F5" stroke-width="4"/>
<path d="M263.978 59.8838L263.978 76.3824" stroke="#E76BEC" stroke-width="4"/>
<path d="M271.333 55.4456V66.7931" stroke="#E76BEC" stroke-width="3"/>
<path d="M256.551 57.0469V62.7207" stroke="#E76BEC" stroke-width="3"/>
<path d="M247.81 33.71L245.624 35.1668M241.618 30.4321V33.3458M245.624 40.2657L240.89 35.8952" stroke="black" stroke-width="2"/>
</svg>
