<svg width="20" height="21" viewBox="0 0 20 21" fill="none" xmlns="http://www.w3.org/2000/svg">
<rect x="1.5" y="1.97266" width="17" height="17" rx="2.5" fill="black"/>
<path fill-rule="evenodd" clip-rule="evenodd" d="M3.50261 13.7194C3.25672 9.91914 2.88897 8.13197 2.73584 7.71341L3.89381 7.22266C3.8044 8.53039 3.99627 10.5339 4.10339 11.3722C5.766 11.3582 7.55435 11.8472 6.66017 12.8252C5.94483 13.6076 4.25707 13.7473 3.50261 13.7194ZM7.61023 10.5618C7.42022 10.5842 7.00946 10.6457 6.82783 10.6736L7.35875 13.2863L7.93158 13.1885L7.61023 10.5618ZM6.95357 9.31838H6.59031L6.82783 10.3243L7.07932 10.2545L6.95357 9.31838ZM7.233 10.2545L7.14917 9.22058H7.48449L7.61023 10.2545H7.233ZM8.49044 8.00506L7.70803 8.07491C7.88687 8.61142 8.19238 11.605 8.32278 13.0348H8.89561C8.71678 11.7494 8.55098 9.14606 8.49044 8.00506ZM9.38462 9.31838H8.99341L9.10519 10.3243H9.38462V9.31838ZM9.88759 9.31838H9.52433V10.3243H9.88759V9.31838ZM9.88759 10.6736H9.10519L9.38462 13.3841H9.88759V10.6736ZM11.2847 7.22266L10.1391 7.71341C10.4073 8.73195 10.8004 12.1418 10.9634 13.7194C12.7098 13.7194 13.7018 13.1885 14.0651 12.8252C15.0375 11.6628 12.7285 11.3722 11.4524 11.3722C11.2512 9.76268 11.2568 7.9352 11.2847 7.22266ZM15.8674 8.00506L15.085 8.07491C15.1688 8.50337 15.4091 10.0952 15.6997 13.0348H16.2726C16.1375 11.5585 15.8674 8.48568 15.8674 8.00506ZM14.6099 10.2545L14.5261 9.22058H14.8614L14.9872 10.2545H14.6099ZM14.3305 9.31838H13.9673L14.2048 10.3243L14.4563 10.2545L14.3305 9.31838ZM14.2048 10.6736C14.3864 10.6457 14.7972 10.5842 14.9872 10.5618L15.3085 13.1885L14.7357 13.2863L14.2048 10.6736ZM16.3704 9.31838H16.7616V10.3243H16.4821L16.3704 9.31838ZM16.9013 9.31838H17.2645V10.3243H16.9013V9.31838ZM16.4821 10.6736H17.2645V13.3841H16.7616L16.4821 10.6736ZM4.7414 13.1246L4.61822 11.9988L5.70255 12.4099L4.7414 13.1246ZM11.987 12.0032L12.1349 13.0999L13.0714 12.3976L11.987 12.0032Z" fill="white"/>
</svg>
