<svg width="20" height="21" viewBox="0 0 20 21" fill="none" xmlns="http://www.w3.org/2000/svg">
<path fill-rule="evenodd" clip-rule="evenodd" d="M1.25 8.32044C1.25 5.38648 4.0819 3.00781 7.57527 3.00781C10.7309 3.00781 13.2611 4.94878 13.7375 7.48688C13.7097 7.48552 13.687 7.48428 13.6668 7.48318C13.6043 7.47977 13.5662 7.47769 13.479 7.47769C10.2929 7.47769 7.71029 9.64718 7.71029 12.323C7.71029 12.7743 7.78509 13.2106 7.92264 13.6252C7.80759 13.6302 7.69191 13.6334 7.57527 13.6334C6.85343 13.6334 6.15663 13.5294 5.51053 13.3421C5.45174 13.3241 5.38946 13.3144 5.32464 13.3144C5.2031 13.3144 5.09296 13.3516 4.989 13.412L3.60395 14.2178C3.56544 14.2403 3.5282 14.2573 3.48224 14.2573C3.36577 14.2573 3.27147 14.1624 3.27147 14.0449C3.27147 14.0052 3.28321 13.9657 3.29469 13.927C3.29842 13.9145 3.30212 13.902 3.30539 13.8896L3.59032 12.8181C3.60268 12.7727 3.61267 12.7298 3.61267 12.6827C3.61267 12.5396 3.54262 12.4133 3.43549 12.3363C2.10211 11.3625 1.25 9.92149 1.25 8.32044ZM4.719 6.62042C4.719 7.03657 5.05385 7.37412 5.46715 7.37412C5.87981 7.37412 6.21466 7.03657 6.21466 6.62042C6.21466 6.20412 5.87981 5.86673 5.46715 5.86673C5.05385 5.86673 4.719 6.20412 4.719 6.62042ZM8.93594 6.62043C8.93594 7.03657 9.2708 7.37396 9.68377 7.37396C10.0968 7.37396 10.4316 7.03657 10.4316 6.62043C10.4316 6.20412 10.0968 5.86673 9.68377 5.86673C9.2708 5.86673 8.93594 6.20412 8.93594 6.62043ZM18.75 12.3228C18.75 13.6568 18.0401 14.8576 16.9288 15.6693C16.8395 15.7335 16.7811 15.839 16.7811 15.9578C16.7811 15.997 16.7895 16.0331 16.7997 16.0707C16.8886 16.4043 17.0306 16.9386 17.0372 16.9637C17.04 16.9744 17.0432 16.9852 17.0465 16.9961C17.0559 17.028 17.0656 17.0605 17.0656 17.0933C17.0656 17.1909 16.987 17.2703 16.8899 17.2703C16.8517 17.2703 16.8204 17.2557 16.7881 17.2374L15.6344 16.5658C15.5476 16.5152 15.4557 16.4841 15.3546 16.4841C15.3005 16.4841 15.2486 16.4925 15.1996 16.5076C14.6611 16.6635 14.0803 16.7502 13.4789 16.7502C10.5679 16.7502 8.20778 14.768 8.20778 12.3228C8.20778 9.87758 10.5679 7.89572 13.4789 7.89572C16.3902 7.89572 18.75 9.87758 18.75 12.3228ZM11.0638 10.9061C11.0638 11.2723 11.3586 11.5691 11.722 11.5691C12.0855 11.5691 12.3801 11.2723 12.3801 10.9061C12.3801 10.5397 12.0855 10.2427 11.722 10.2427C11.3586 10.2427 11.0638 10.5397 11.0638 10.9061ZM14.5782 10.9061C14.5782 11.2723 14.8724 11.5691 15.236 11.5691C15.5995 11.5691 15.8941 11.2723 15.8941 10.9061C15.8941 10.5397 15.5995 10.2427 15.236 10.2427C14.8724 10.2427 14.5782 10.5397 14.5782 10.9061Z" fill="black"/>
</svg>
