<svg width="20" height="21" viewBox="0 0 20 21" fill="none" xmlns="http://www.w3.org/2000/svg">
<path d="M18.3014 9.46512C18.2359 9.73217 17.9904 9.8771 17.716 9.87587C17.4416 9.87465 17.1986 9.73014 17.1461 9.47733C17.1116 9.28658 17.1206 9.09049 17.1726 8.90374C17.3136 8.37015 17.3162 7.8094 17.18 7.27456C17.0438 6.73972 16.7733 6.24849 16.3942 5.84738C16.0151 5.44626 15.5399 5.14854 15.0136 4.9824C14.4873 4.81625 13.9273 4.78718 13.3866 4.89794C13.0222 4.96837 12.6945 4.76685 12.6131 4.41635C12.5378 4.09067 12.7564 3.75034 13.1171 3.68358C14.8094 3.36727 16.257 3.83339 17.4083 5.10841L17.41 5.11031C17.4691 5.17554 19.044 6.91273 18.3014 9.46512Z" fill="black"/>
<path fill-rule="evenodd" clip-rule="evenodd" d="M10.0321 14.6939C9.44349 15.3383 8.61179 15.6978 7.50816 15.6978C7.07298 15.6876 6.49532 15.5227 6.0068 15.1181C5.10754 14.3666 5.00169 13.1693 5.73446 12.1756C6.48025 11.1648 7.99871 10.7109 9.17725 11.146C10.7462 11.7249 11.1635 13.4579 10.0321 14.6939ZM8.46321 13.2023C8.67123 13.2002 8.84832 13.0293 8.84832 12.8359C8.84669 12.6661 8.72823 12.5591 8.54219 12.5591C8.3366 12.5607 8.1526 12.7333 8.1526 12.9222C8.15382 13.0801 8.29019 13.2055 8.46321 13.2023ZM6.2588 14.2404C6.40657 14.5379 6.67404 14.6503 6.99482 14.6552C7.17155 14.6541 7.34542 14.6105 7.50168 14.5279C7.65794 14.4453 7.79199 14.3263 7.89246 14.1809C8.2161 13.7014 7.99424 13.0932 7.45403 12.9784C7.24702 12.9364 7.03229 12.9556 6.83598 13.0335C6.63966 13.1114 6.47025 13.2447 6.34836 13.4172C6.17005 13.6741 6.11632 13.9554 6.2588 14.2404Z" fill="black"/>
<path fill-rule="evenodd" clip-rule="evenodd" d="M1.59188 11.9765C1.84428 10.8834 2.40607 9.94956 3.10383 9.091C4.14761 7.80499 5.36319 6.72131 6.86537 5.98813C7.33638 5.75853 7.8257 5.57575 8.35126 5.53341C8.59335 5.51101 8.83743 5.52473 9.07548 5.57412C9.62343 5.69625 9.97108 6.13591 9.96742 6.73026C9.96742 6.9573 9.92974 7.18364 9.89195 7.41066C9.87201 7.53045 9.85204 7.65043 9.83756 7.7708C9.83056 7.87337 9.82947 7.97626 9.8343 8.07897C9.86934 8.07897 9.90512 8.08147 9.94091 8.08398C10.0178 8.08936 10.0947 8.09475 10.1645 8.0753C10.3702 8.01728 10.5745 7.95316 10.7788 7.88906C11.1551 7.77101 11.5311 7.65303 11.915 7.57335C12.2907 7.4956 12.6994 7.50211 13.0833 7.55015C13.9639 7.66129 14.3832 8.31223 14.1902 9.20946C14.1609 9.34646 14.1163 9.48052 14.0717 9.61435C14.0543 9.66658 14.0369 9.71893 14.0204 9.77125C13.9423 10.02 13.9834 10.0884 14.224 10.1865C14.2915 10.2139 14.3596 10.2407 14.4276 10.2675C14.6877 10.3698 14.9483 10.4723 15.1851 10.6139C16.3148 11.2881 16.6604 12.3962 16.132 13.6012C15.7184 14.5444 15.0085 15.2332 14.1698 15.7975C12.8855 16.6621 11.4521 17.1144 9.92101 17.285C8.30159 17.4649 6.71597 17.3167 5.17227 16.7908C4.10731 16.4276 3.13395 15.909 2.37472 15.0545C1.90982 14.5314 1.60125 13.9317 1.51983 13.2283C1.46218 12.7127 1.54384 12.1789 1.59188 11.9765ZM4.45619 15.4462C5.48817 16.1517 6.65449 16.3902 7.57778 16.4004C8.97411 16.4028 10.0228 16.1973 11.0145 15.7385C11.8844 15.3358 12.64 14.7895 13.1265 13.9375C13.6553 13.0109 13.5564 11.9765 12.8696 11.1623C12.4846 10.7128 11.9984 10.3612 11.4509 10.1365C9.7655 9.41997 8.05163 9.43951 6.33167 9.9899C5.34121 10.307 4.46107 10.8143 3.80321 11.6427C3.30533 12.2704 3.05904 12.9767 3.24142 13.782C3.40548 14.5062 3.85735 15.0366 4.45619 15.4462Z" fill="black"/>
<path d="M15.4884 9.0967C15.2324 9.04662 15.0602 8.81417 15.0777 8.52677C15.0818 8.45826 15.093 8.39018 15.1042 8.32208C15.1149 8.25706 15.1256 8.19202 15.1302 8.12659C15.1402 7.96815 15.1154 7.80944 15.0575 7.66161C14.9996 7.51378 14.9101 7.38041 14.7952 7.27088C14.6803 7.16136 14.5427 7.07832 14.3923 7.02761C14.2419 6.97691 14.0821 6.95976 13.9244 6.97737C13.7911 6.99741 13.6552 6.99327 13.5234 6.96516C13.2995 6.90775 13.1668 6.69485 13.1704 6.45588C13.1741 6.21692 13.306 6.02151 13.5474 5.96411C14.2517 5.79598 14.8908 5.94986 15.4432 6.41192C15.9493 6.8414 16.2086 7.39708 16.2285 8.07245C16.2694 8.47947 16.1786 9.25415 15.4884 9.0967Z" fill="black"/>
</svg>
