<svg width="20" height="21" viewBox="0 0 20 21" fill="none" xmlns="http://www.w3.org/2000/svg">
<rect x="1.5" y="1.97266" width="17" height="17" rx="2.5" fill="black"/>
<path fill-rule="evenodd" clip-rule="evenodd" d="M14.5373 12.8773V11.938C14.5376 11.6206 14.5371 11.3033 14.5357 10.9861C14.5355 10.948 14.5382 10.92 14.5886 10.92C14.7858 10.921 14.9829 10.9209 15.18 10.9209C15.3968 10.9208 15.6135 10.9207 15.8303 10.922C15.8604 10.922 15.8902 10.928 15.9181 10.9396C15.9459 10.9512 15.9711 10.9682 15.9923 10.9896C16.0135 11.011 16.0303 11.0364 16.0416 11.0644C16.0529 11.0923 16.0586 11.1222 16.0583 11.1523C16.0593 11.3137 16.0594 11.4751 16.0594 11.6364C16.0594 11.7883 16.0594 11.9401 16.0603 12.0919C16.0606 12.1461 16.0378 12.1585 15.9881 12.1585C15.8755 12.1575 15.7629 12.1578 15.6503 12.1581C15.594 12.1583 15.5375 12.1585 15.4812 12.1585L15.2193 12.1598C15.1894 12.16 15.1686 12.1651 15.1705 12.2043C15.1811 12.3663 15.2412 12.5212 15.3425 12.6481C15.4438 12.775 15.5816 12.8678 15.7373 12.914C15.9247 12.9662 16.1171 12.961 16.3072 12.9382C16.4988 12.9155 16.6752 12.823 16.8029 12.6784C16.9305 12.5338 17.0003 12.3472 16.999 12.1543C17.0003 11.733 17.0003 11.3117 16.999 10.8903C17.0013 10.6596 16.9127 10.4372 16.7525 10.2711C16.6643 10.175 16.5563 10.0991 16.4358 10.0489C16.3154 9.99874 16.1855 9.97536 16.0551 9.98043C15.9691 9.98202 15.9673 9.97906 15.9673 9.89584C15.9672 9.83933 15.9675 9.78284 15.9678 9.72638C15.9685 9.60791 15.9692 9.48958 15.9655 9.37146C15.9637 9.2731 15.952 9.17517 15.9306 9.07917C15.8207 8.62478 15.3957 8.29396 14.9274 8.2919C14.8907 8.2919 14.854 8.2917 14.8173 8.2915C14.7439 8.29109 14.6705 8.29069 14.5971 8.2919C14.5526 8.29259 14.5355 8.27412 14.5355 8.23149C14.5361 8.20415 14.536 8.17682 14.5358 8.1495C14.5356 8.11416 14.5355 8.07886 14.5369 8.04362C14.5382 8.00349 14.5225 7.99072 14.4833 7.99072C14.3929 7.99072 14.3024 7.99093 14.212 7.99113C14.031 7.99154 13.8499 7.99194 13.6689 7.99072C13.6251 7.9905 13.6124 8.00691 13.6124 8.04704C13.6124 8.06659 13.612 8.08618 13.6116 8.10576C13.6109 8.14502 13.6102 8.18444 13.6124 8.22351C13.6153 8.2764 13.5934 8.2919 13.5421 8.2919C13.4568 8.29038 13.3713 8.29027 13.2859 8.29016C13.2175 8.29007 13.1492 8.28998 13.0809 8.28917C13.0435 8.28871 13.0257 8.29829 13.0257 8.34001C13.0271 8.61892 13.0271 8.89791 13.0257 9.17698C13.0255 9.22189 13.0442 9.22896 13.0841 9.22896H13.5285C13.6094 9.22896 13.6119 9.23056 13.6119 9.31126V9.89744C13.6121 9.97609 13.6103 9.97929 13.5285 9.97929H12.7533C12.6817 9.97929 12.6803 9.98157 12.6803 10.0529C12.6803 10.1418 12.6806 10.2306 12.681 10.3194C12.6816 10.4967 12.6823 10.6737 12.6803 10.8509C12.6799 10.9063 12.6958 10.923 12.7505 10.923C13.0093 10.9216 13.2676 10.9216 13.5257 10.9216C13.5697 10.9216 13.5917 10.9216 13.6027 10.9326C13.6137 10.9436 13.6137 10.9657 13.6137 11.0098C13.6148 11.6344 13.6148 12.2588 13.6137 12.8832C13.6135 12.9318 13.6258 12.9498 13.6771 12.9498C13.9411 12.9475 14.2049 12.9471 14.4689 12.9498C14.5246 12.9503 14.5373 12.9309 14.5373 12.8773ZM14.5377 9.70844C14.5375 9.67369 14.5373 9.63895 14.5373 9.60424L14.5379 9.52254C14.5384 9.44539 14.5388 9.36813 14.5371 9.29097C14.536 9.24355 14.5549 9.22759 14.6005 9.22896C14.6489 9.23045 14.6975 9.23025 14.7459 9.23005C14.7866 9.22989 14.8273 9.22972 14.8679 9.23056C14.9655 9.23261 15.0264 9.29052 15.0275 9.38696C15.0286 9.50582 15.0282 9.62468 15.0279 9.74354C15.0277 9.80297 15.0275 9.8624 15.0275 9.92183C15.0275 9.96219 15.0134 9.97951 14.9707 9.97951C14.8475 9.97769 14.7242 9.97769 14.6009 9.97951C14.5549 9.9802 14.5362 9.96469 14.5373 9.91704C14.5384 9.84757 14.538 9.77798 14.5377 9.70844Z" fill="white"/>
<path d="M10.2147 8.30103V9.25473L10.2966 9.25314C10.349 9.25314 10.4015 9.25336 10.454 9.25359C10.5591 9.25405 10.6644 9.2545 10.7694 9.25314C10.8134 9.25268 10.829 9.26704 10.829 9.31264C10.8276 10.1989 10.8276 11.0853 10.829 11.9717C10.829 12.0269 10.8112 12.0424 10.7567 12.0424C10.5841 12.0415 10.4118 12.0418 10.2396 12.0421C10.1537 12.0423 10.0673 12.0424 9.9815 12.0424C9.94229 12.0424 9.91493 12.0511 9.89555 12.091C9.80582 12.2744 9.71489 12.457 9.62397 12.6396L9.5018 12.8853C9.47262 12.9425 9.47855 12.951 9.54102 12.951C10.5606 12.9499 11.5801 12.9499 12.5996 12.951C12.6531 12.951 12.6723 12.9366 12.6723 12.8807C12.6703 12.6246 12.6707 12.3684 12.6734 12.1122C12.6739 12.057 12.655 12.0408 12.6009 12.0408C12.4337 12.0419 12.2665 12.0415 12.0993 12.0412C12.016 12.041 11.9319 12.0408 11.8485 12.0408C11.8039 12.0408 11.7814 12.0408 11.7701 12.0296C11.7587 12.0182 11.7587 11.9954 11.7587 11.9496V9.42162C11.7587 9.40962 11.7589 9.39758 11.7591 9.38555C11.7595 9.3615 11.7599 9.3374 11.7587 9.31356C11.7567 9.26955 11.7744 9.25428 11.8189 9.25428C11.9227 9.25519 12.0266 9.25488 12.1303 9.25458C12.1821 9.25443 12.2341 9.25428 12.2858 9.25428C12.3008 9.25412 12.3157 9.25325 12.3323 9.25228L12.3581 9.25086V8.37194C12.3581 8.33459 12.3581 8.31583 12.3487 8.30642C12.3393 8.29693 12.3203 8.29693 12.2822 8.29693H10.2831C10.2671 8.29693 10.2516 8.29817 10.2355 8.29946L10.2147 8.30103Z" fill="white"/>
<path d="M5.74316 10.7145C5.74352 11.2155 5.74387 11.716 5.74153 12.2168C5.74153 12.4259 5.67587 12.6158 5.53201 12.7731C5.42599 12.8892 5.28851 12.9414 5.13621 12.9469L5.13458 12.9469C5.00103 12.9517 4.86436 12.9566 4.7338 12.9336C4.4634 12.8862 4.25 12.6514 4.20713 12.3796C4.20198 12.3474 4.19801 12.3152 4.19404 12.283L4.18844 12.2385C4.18251 12.1952 4.1987 12.1781 4.24498 12.1787C4.35135 12.1803 4.45772 12.1798 4.5641 12.1792C4.6173 12.179 4.67057 12.1787 4.72377 12.1787C4.79878 12.1787 4.8022 12.1749 4.8022 12.1026V8.07212C4.8022 7.99095 4.8022 7.99072 4.88336 7.99072H5.65854C5.74199 7.99072 5.74381 7.993 5.74381 8.07759L5.74316 10.7145Z" fill="white"/>
<path d="M8.67809 10.1324C8.68812 10.1333 8.69906 10.1342 8.7114 10.1351L8.70307 10.1581C8.69673 10.1759 8.692 10.1892 8.6861 10.1998L8.27571 11.0366C8.21711 11.1558 8.16171 11.275 8.15054 11.4118C8.1364 11.5826 8.21324 11.6747 8.38378 11.6854C8.4198 11.6873 8.45605 11.6873 8.49207 11.6873C8.79758 11.6884 9.10332 11.6895 9.40884 11.6873C9.42176 11.6856 9.43418 11.6812 9.44521 11.6743C9.45624 11.6673 9.46561 11.6581 9.47267 11.6471C9.58647 11.4464 9.69714 11.2448 9.80867 11.0416L9.81193 11.0357C9.82221 11.0168 9.83204 10.9977 9.8431 10.9762L9.86459 10.9346H9.78867C9.74117 10.9346 9.69368 10.935 9.64621 10.9353C9.55129 10.936 9.4564 10.9366 9.36141 10.9346C9.27022 10.9326 9.23328 10.8685 9.27022 10.7862C9.27535 10.7746 9.28111 10.7634 9.28685 10.7521L9.29028 10.7454C9.51538 10.3069 9.74019 9.8684 9.96468 9.42989C9.98127 9.39802 9.99749 9.36524 10.015 9.32993L10.047 9.26551L10.0164 9.2638C9.99599 9.2626 9.97945 9.26163 9.96377 9.26163C9.88151 9.26163 9.79927 9.26194 9.71705 9.26224C9.55255 9.26285 9.38791 9.26346 9.22348 9.26163C9.16853 9.26095 9.13593 9.276 9.11404 9.32752C9.09215 9.37905 9.03698 9.39022 8.98499 9.36172C8.97399 9.35605 8.96423 9.34825 8.95628 9.33876C8.94833 9.32927 8.94235 9.31829 8.9387 9.30647C8.93505 9.29464 8.93379 9.2822 8.93501 9.26988C8.93622 9.25757 8.93989 9.24561 8.94578 9.23473L9.5543 8.07059C9.56524 8.05076 9.57664 8.02978 9.59146 8.00219C9.57508 7.99728 9.55829 7.99385 9.5413 7.99193C9.41815 7.99204 9.29515 7.99244 9.17225 7.99283C9.02916 7.9933 8.88621 7.99376 8.74332 7.99376C8.72727 7.9928 8.71134 7.99703 8.69788 8.00581C8.68442 8.0146 8.67413 8.02748 8.66854 8.04255C8.62847 8.12658 8.58667 8.2098 8.54487 8.29304L8.36415 8.65432C8.26508 8.85226 8.16589 9.05044 8.06823 9.24909C7.99801 9.39227 7.92938 9.53591 7.86737 9.68228C7.84657 9.73928 7.83443 9.79907 7.83135 9.85966C7.81493 10.0279 7.90567 10.1278 8.07553 10.1294C8.19833 10.1303 8.32104 10.13 8.44377 10.1297C8.50515 10.1295 8.56654 10.1294 8.62796 10.1294C8.64359 10.1294 8.65922 10.1307 8.67809 10.1324Z" fill="white"/>
<path d="M6.86173 9.26456H7.26049C7.30012 9.26456 7.3195 9.26456 7.32898 9.27425C7.33804 9.28352 7.33803 9.30166 7.33801 9.33718L7.33801 9.3423C7.33801 9.41676 7.33735 9.49124 7.33669 9.56571C7.33498 9.75689 7.33328 9.94802 7.3428 10.1387C7.35941 10.5028 7.41134 10.8644 7.49784 11.2185C7.50384 11.2423 7.51007 11.2662 7.5163 11.29C7.53067 11.3449 7.54505 11.3999 7.55666 11.4556C7.56179 11.481 7.55843 11.5073 7.54708 11.5306C7.3922 11.8176 7.23625 12.1038 7.07924 12.3894C7.04686 12.4485 7.04116 12.4494 6.98576 12.4077C6.85307 12.3074 6.78239 12.1642 6.72402 12.0153C6.60501 11.7114 6.54642 11.3927 6.49922 11.0714C6.44168 10.6656 6.40652 10.257 6.39389 9.84731C6.39108 9.77138 6.38875 9.69541 6.38643 9.61942C6.38347 9.52293 6.38052 9.4263 6.37656 9.32976C6.37451 9.28166 6.38865 9.26273 6.4404 9.2641C6.53404 9.26638 6.62777 9.26562 6.72148 9.26486C6.76832 9.26448 6.81493 9.26456 6.86173 9.26456Z" fill="white"/>
<path d="M4.12145 9.26403H3.69442L3.26101 9.26494C3.22703 9.26494 3.21244 9.27292 3.21244 9.31396L3.21445 9.45627C3.21764 9.66864 3.22083 9.88117 3.21244 10.0932C3.19549 10.5351 3.12763 10.9736 3.01021 11.3999C3.00054 11.4311 2.99769 11.464 3.00186 11.4964C3.00603 11.5289 3.01712 11.56 3.03438 11.5877C3.09829 11.7005 3.1602 11.8143 3.22213 11.9281C3.24895 11.9774 3.27597 12.0271 3.30296 12.0763L3.35758 12.1758C3.39958 12.2522 3.4416 12.3286 3.48262 12.4056C3.50063 12.4391 3.52069 12.4461 3.54896 12.4208C3.56073 12.4103 3.57337 12.4002 3.58604 12.39C3.61708 12.3653 3.64828 12.3404 3.66706 12.308L3.6694 12.304C3.73796 12.1865 3.80759 12.0671 3.85539 11.9405C3.97919 11.6121 4.03345 11.2663 4.07631 10.9202C4.13949 10.3889 4.17321 9.85447 4.17731 9.31944C4.178 9.27566 4.16249 9.26403 4.12145 9.26403Z" fill="white"/>
<path d="M9.45224 12.0128C9.37837 12.1514 9.31179 12.2763 9.24568 12.4015L9.20959 12.4698C9.13492 12.6112 9.06024 12.7526 8.98759 12.8951C8.97992 12.914 8.96622 12.9299 8.94862 12.9402C8.93102 12.9506 8.9105 12.9548 8.89023 12.9523C8.72442 12.9513 8.5586 12.9512 8.39278 12.9511C8.19381 12.951 7.99484 12.9509 7.79586 12.9491C7.73393 12.945 7.67335 12.9292 7.61734 12.9024C7.55738 12.8769 7.55351 12.8536 7.58383 12.7948C7.70223 12.5656 7.82094 12.3367 7.93996 12.1081C7.95113 12.0865 7.96218 12.0646 7.97323 12.0428L8.00174 11.9868C8.01451 11.9624 8.02842 11.9599 8.05669 11.9706C8.10646 11.9925 8.15957 12.0058 8.21378 12.01C8.49632 12.0126 8.779 12.0126 9.06161 12.0126L9.45224 12.0128Z" fill="white"/>
<path d="M16.279 9.20722C16.2296 9.20692 16.1803 9.20662 16.1311 9.20753C16.093 9.20867 16.0738 9.19544 16.0745 9.15623C16.0752 9.10707 16.075 9.05783 16.0747 9.0086C16.0742 8.90214 16.0736 8.79569 16.083 8.68998C16.094 8.5841 16.143 8.4858 16.221 8.41334C16.299 8.34089 16.4006 8.29919 16.507 8.29601C16.6162 8.28997 16.7239 8.32355 16.8102 8.39057C16.8966 8.45759 16.9559 8.55356 16.9771 8.6608C17.0227 8.86873 16.9087 9.09741 16.7051 9.16763L16.3531 9.20753C16.3284 9.20753 16.3037 9.20738 16.279 9.20722Z" fill="white"/>
</svg>
