<svg width="20" height="21" viewBox="0 0 20 21" fill="none" xmlns="http://www.w3.org/2000/svg">
<rect x="1.5" y="1.97266" width="17" height="17" rx="2.5" fill="black"/>
<path d="M4.52312 10.8165H3.12695C3.10354 10.5433 3.27648 10.2327 3.55599 10.2591C3.72995 10.2758 3.90616 10.2722 4.08219 10.2686C4.19567 10.2663 4.30909 10.264 4.42178 10.2671C4.55094 10.2709 4.58701 10.2211 4.58921 10.0999C4.5939 9.683 4.60161 9.26636 4.61868 8.84998C4.62419 8.7178 4.57737 8.6809 4.45538 8.69136C4.35941 8.70072 4.26275 8.70072 4.16678 8.69136C4.04479 8.67815 3.98641 8.72524 3.95199 8.842C3.8344 9.23937 3.54993 9.43654 3.14981 9.48583C3.13621 9.48661 3.12257 9.48615 3.10905 9.48446C3.10658 9.48446 3.1043 9.48278 3.10014 9.47971C3.09737 9.47766 3.09375 9.47499 3.08867 9.47179C3.09151 9.44828 3.09639 9.42506 3.10327 9.40239C3.17216 9.22432 3.24155 9.0464 3.31094 8.86848C3.44738 8.51866 3.58383 8.16878 3.71654 7.81759C3.83963 7.49236 4.13319 7.27646 4.46006 7.30125L4.18661 8.16181C4.21117 8.16295 4.23352 8.16425 4.25442 8.16547C4.2942 8.16778 4.32874 8.1698 4.3634 8.1698H6.01375C6.22745 8.1698 6.40176 8.45371 6.3007 8.64455C6.28417 8.67539 6.21643 8.69219 6.17209 8.69274C5.99418 8.69546 5.81627 8.6952 5.63835 8.69493C5.54584 8.6948 5.45334 8.69466 5.36083 8.69494C5.32343 8.69494 5.28616 8.69735 5.24623 8.69992C5.22884 8.70105 5.21093 8.7022 5.19229 8.70321L5.18944 8.75578C5.18757 8.78882 5.18587 8.81896 5.18514 8.84861C5.18215 8.96887 5.17957 9.08913 5.17698 9.20938C5.17052 9.51038 5.16405 9.81141 5.15126 10.112C5.14576 10.2368 5.18651 10.2704 5.30492 10.2679C5.44683 10.2647 5.589 10.2653 5.73111 10.266C5.87802 10.2667 6.02486 10.2674 6.17127 10.2638C6.31254 10.2602 6.38028 10.3238 6.41305 10.4521C6.50062 10.7947 6.48603 10.8159 6.1396 10.8159H5.11877L4.96841 11.6118C4.9937 11.599 5.01825 11.5849 5.04194 11.5694L5.04316 11.5684C5.2449 11.4176 5.2466 11.4163 5.4104 11.6013C5.49992 11.7023 5.58831 11.8044 5.67669 11.9065C5.78322 12.0295 5.88984 12.1526 5.99833 12.2738C6.1776 12.474 6.15833 12.7125 6.13795 12.9507C6.13302 13.0089 6.119 13.0665 6.10216 13.1356C6.09361 13.1707 6.08434 13.2087 6.07516 13.2514L4.90122 11.8445C4.89343 11.8663 4.88647 11.8854 4.88017 11.9026C4.86912 11.9329 4.8601 11.9576 4.8522 11.9821C4.70295 12.4528 4.50522 12.8983 4.17091 13.2704C3.92307 13.5477 3.36818 13.6812 3.02754 13.551C3.02314 13.5493 3.01998 13.5445 3.01437 13.5359C3.01085 13.5305 3.00636 13.5237 3 13.5152C3.86497 12.8267 4.41793 11.9579 4.52312 10.8165Z" fill="white"/>
<path d="M10.6785 10.5262L11.4634 10.526C12.1212 10.5255 12.779 10.5251 13.4367 10.5293C13.5604 10.5293 13.5899 10.4932 13.5888 10.374C13.5845 9.88431 13.585 9.39451 13.5856 8.8979C13.5858 8.72607 13.586 8.55285 13.586 8.37911C13.5243 8.37911 13.4634 8.37837 13.4031 8.37763C13.284 8.37616 13.1669 8.37473 13.0501 8.37911C12.8418 8.38835 12.6336 8.39957 12.4255 8.41079C12.1807 8.42398 11.936 8.43716 11.6911 8.44713C11.5766 8.44942 11.4621 8.43898 11.3499 8.41602C11.2401 8.39617 11.1403 8.33936 11.0672 8.25501C10.994 8.17066 10.9519 8.06384 10.9479 7.95228L11.0983 7.94288C11.2158 7.93564 11.3335 7.92838 11.4513 7.91951L12.224 7.86203C12.9438 7.80861 13.6637 7.75517 14.3824 7.6992C14.9115 7.65735 15.4402 7.60925 15.9686 7.5549C16.0594 7.54542 16.1484 7.52177 16.2374 7.49813C16.2854 7.48537 16.3334 7.47262 16.3816 7.4621C16.5499 7.42575 16.6534 7.48165 16.6537 7.65294C16.654 7.79504 16.6193 7.93449 16.5849 8.07317C16.5778 8.10161 16.5707 8.13014 16.5639 8.15854C16.5582 8.18332 16.4913 8.2059 16.4513 8.20865C16.0309 8.23618 15.6103 8.26124 15.1896 8.28629C15.1 8.29161 15.01 8.29713 14.9204 8.30263C14.6946 8.31649 14.4687 8.33035 14.2428 8.34139C14.1659 8.34497 14.1326 8.37333 14.1368 8.44796C14.1377 8.47234 14.1374 8.49671 14.1371 8.52117C14.1369 8.53344 14.1368 8.54579 14.1368 8.55811V10.5224C14.2073 10.5224 14.2768 10.5226 14.3456 10.5228C14.481 10.5231 14.6136 10.5235 14.7462 10.5224L15.0992 10.5193C15.6873 10.5142 16.2755 10.5091 16.8638 10.4993C16.9789 10.4973 17.0109 10.5411 16.9971 10.6438C16.9944 10.665 16.9929 10.6863 16.9913 10.7077C16.9895 10.7321 16.9877 10.7568 16.9842 10.7815C16.9536 10.9963 16.8883 11.0536 16.6686 11.0536C15.8849 11.0536 15.101 11.053 14.3169 11.0519C14.1326 11.0519 14.1321 11.0519 14.1318 11.2323C14.1318 11.3954 14.1315 11.5586 14.1312 11.7217C14.1307 12.0479 14.1301 12.3741 14.1318 12.7004C14.134 13.3985 13.6243 13.6956 13.0201 13.6397C12.6544 13.6055 12.3578 13.4367 12.1799 13.0986C12.1672 13.07 12.1562 13.0408 12.1469 13.011C12.1895 13.011 12.2307 13.0107 12.2709 13.0104C12.3486 13.0099 12.4229 13.0094 12.4969 13.011C12.5764 13.0131 12.656 13.0166 12.7356 13.02C12.8623 13.0255 12.989 13.0309 13.1148 13.0311C13.396 13.0311 13.5783 12.8634 13.583 12.5844C13.5877 12.3122 13.587 12.04 13.5863 11.7678C13.5858 11.5636 13.5853 11.3594 13.5871 11.1552C13.5871 11.0487 13.5241 11.05 13.4593 11.0514L13.4376 11.0517H11.5121C11.3932 11.0517 11.2734 11.0517 11.1541 11.0404C10.8988 11.0139 10.7069 10.8126 10.6785 10.5262Z" fill="white"/>
<path fill-rule="evenodd" clip-rule="evenodd" d="M7.35264 13.3142C7.36609 13.3592 7.38002 13.4059 7.39421 13.4543C7.41429 13.4427 7.432 13.4328 7.44809 13.4237C7.48158 13.4048 7.50817 13.3898 7.53438 13.3733C7.60196 13.3312 7.66924 13.2885 7.73651 13.2459C7.89349 13.1463 8.05051 13.0468 8.21126 12.9539C8.28924 12.9102 8.37642 12.8856 8.46571 12.882C8.73091 12.8735 8.9972 12.8724 9.26266 12.882C9.39209 12.8864 9.42348 12.8421 9.42348 12.7182C9.41908 11.2295 9.41908 9.74159 9.42348 8.25454C9.42376 8.12181 9.38438 8.08408 9.25275 8.08408C8.66185 8.0878 8.0708 8.08733 7.47982 8.08687C7.28285 8.08671 7.08584 8.08656 6.88889 8.08656C6.70935 8.08683 6.70935 8.08738 6.70935 8.27051C6.70824 9.67127 6.70824 11.0721 6.70935 12.4731C6.70935 12.5057 6.70708 12.5414 6.70479 12.5775C6.69814 12.6825 6.69123 12.7916 6.73854 12.8415C6.78272 12.8882 6.88057 12.8841 6.97839 12.88C7.02141 12.8783 7.06443 12.8765 7.10286 12.879C7.10744 12.8795 7.11206 12.8795 7.11663 12.879C7.20338 12.8636 7.23807 12.9093 7.25845 12.9861C7.2867 13.0932 7.3184 13.1994 7.35264 13.3142ZM7.82408 12.5964C7.76871 12.6345 7.71125 12.6694 7.65197 12.7011C7.64636 12.6843 7.64088 12.6687 7.63567 12.6539C7.62195 12.6148 7.61014 12.5811 7.60295 12.5466C7.57514 12.4133 7.53796 12.3012 7.35952 12.334C7.27601 12.3495 7.27645 12.2846 7.27685 12.2263L7.2769 12.2145V8.65108C7.296 8.64964 7.31359 8.64803 7.33016 8.6465C7.36428 8.64336 7.39412 8.64062 7.42396 8.64062C7.56596 8.64034 7.70797 8.64053 7.84997 8.64071C8.13398 8.64108 8.41798 8.64145 8.70199 8.63814C8.81132 8.63676 8.854 8.6632 8.854 8.78216C8.85088 9.91728 8.85088 11.0524 8.854 12.1875C8.85428 12.2946 8.82095 12.3464 8.71328 12.3296C8.37484 12.2767 8.08652 12.3921 7.82408 12.5964Z" fill="white"/>
<path d="M16.2894 8.96269L15.287 10.2688L14.8398 9.93368L14.9365 9.80774C14.9806 9.75029 15.0238 9.69411 15.0667 9.63792L15.5734 8.97316C15.7411 8.75285 15.8488 8.72532 16.0988 8.84951C16.1367 8.8682 16.1726 8.89054 16.2162 8.91775C16.2382 8.93144 16.2622 8.94638 16.2894 8.96269Z" fill="white"/>
<path d="M11.5111 9.1355C11.7792 9.50999 12.0485 9.88627 12.3268 10.2747C12.3768 10.2401 12.4242 10.2067 12.4701 10.1743C12.5462 10.1206 12.6184 10.0697 12.6922 10.0208C12.7569 9.97808 12.7641 9.9376 12.7181 9.87619C12.6704 9.81243 12.6223 9.74883 12.5743 9.68522C12.4155 9.47487 12.2566 9.26442 12.1065 9.04812C11.9446 8.8146 11.6491 8.82974 11.4241 9.01397L11.5111 9.1355Z" fill="white"/>
</svg>
